<?xml version="1.0" encoding="UTF-8" standalone="no"?>
<!-- Created with Inkscape (http://www.inkscape.org/) -->

<svg
   xmlns:dc="http://purl.org/dc/elements/1.1/"
   xmlns:cc="http://creativecommons.org/ns#"
   xmlns:rdf="http://www.w3.org/1999/02/22-rdf-syntax-ns#"
   xmlns:svg="http://www.w3.org/2000/svg"
   xmlns="http://www.w3.org/2000/svg"
   xmlns:sodipodi="http://sodipodi.sourceforge.net/DTD/sodipodi-0.dtd"
   xmlns:inkscape="http://www.inkscape.org/namespaces/inkscape"
   width="36mm"
   height="36mm"
   viewBox="0 0 36 36"
   version="1.1"
   id="svg938"
   inkscape:version="0.92.3 (2405546, 2018-03-11)"
   sodipodi:docname="bamboo.svg">
  <defs
     id="defs932">
    <inkscape:path-effect
       effect="spiro"
       id="path-effect1658"
       is_visible="true" />
  </defs>
  <sodipodi:namedview
     id="base"
     pagecolor="#ffffff"
     bordercolor="#666666"
     borderopacity="1.0"
     inkscape:pageopacity="0.0"
     inkscape:pageshadow="2"
     inkscape:zoom="3.959798"
     inkscape:cx="-21.739108"
     inkscape:cy="107.58456"
     inkscape:document-units="mm"
     inkscape:current-layer="layer1"
     showgrid="false"
     inkscape:window-width="1920"
     inkscape:window-height="1136"
     inkscape:window-x="1920"
     inkscape:window-y="27"
     inkscape:window-maximized="1" />
  <metadata
     id="metadata935">
    <rdf:RDF>
      <cc:Work
         rdf:about="">
        <dc:format>image/svg+xml</dc:format>
        <dc:type
           rdf:resource="http://purl.org/dc/dcmitype/StillImage" />
        <dc:title></dc:title>
      </cc:Work>
    </rdf:RDF>
  </metadata>
  <g
     inkscape:label="grid"
     inkscape:groupmode="layer"
     id="layer1"
     style="display:inline">
    <rect
       y="-0.5"
       x="0.5"
       height="36"
       width="36"
       id="rect852"
       style="color:#000000;display:inline;overflow:visible;visibility:visible;opacity:1;fill:none;fill-opacity:1;fill-rule:nonzero;stroke:#000000;stroke-width:1;stroke-linecap:round;stroke-linejoin:round;stroke-miterlimit:4;stroke-dasharray:none;stroke-dashoffset:0;stroke-opacity:1;marker:none;enable-background:accumulate" />
    <path
       style="fill:#000000;fill-opacity:1;stroke:none;stroke-width:43.62540436;stroke-linecap:round;stroke-linejoin:round;stroke-miterlimit:4;stroke-dasharray:none;stroke-opacity:1"
       d="m 10.471753,23.722347 2.33216,-0.08184 c 0.173347,-0.0061 0.317797,0.128574 0.323881,0.30192 0,0 -0.215169,0.297501 -0.205704,0.467485 0.145298,2.60951 0.239529,6.436994 0.320587,7.666426 0.0161,0.244936 0.187144,0.472709 0.187144,0.472709 0.01078,0.173118 -0.128573,0.317797 -0.301919,0.32388 l -2.332158,0.08184 c -0.173347,0.0061 -0.317797,-0.128572 -0.32388,-0.301919 0,0 0.278141,-0.296827 0.274772,-0.481628 -0.041,-2.248136 -0.296844,-6.363689 -0.414416,-7.623684 -0.02145,-0.229854 -0.162385,-0.501308 -0.162385,-0.501308 -0.01229,-0.173017 0.128573,-0.317797 0.301919,-0.323881 z"
       id="rect1056"
       inkscape:connector-curvature="0"
       sodipodi:nodetypes="sssssssssssss" />
    <path
       sodipodi:nodetypes="sssssssssssss"
       inkscape:connector-curvature="0"
       id="path1059"
       d="m 10.011357,14.219553 2.332159,-0.08184 c 0.173346,-0.0061 0.317797,0.128572 0.32388,0.301919 0,0 -0.215168,0.297502 -0.205703,0.467484 0.145297,2.609512 0.239529,6.436996 0.320586,7.666428 0.0161,0.244935 0.187143,0.472709 0.187143,0.472709 0.01078,0.173116 -0.128572,0.317795 -0.301919,0.323879 l -2.332157,0.08184 c -0.173346,0.0061 -0.317797,-0.128572 -0.32388,-0.301918 0,0 0.278141,-0.296828 0.274771,-0.48163 -0.041,-2.248133 -0.2968434,-6.363688 -0.414416,-7.623683 -0.021449,-0.229854 -0.1623837,-0.501308 -0.1623837,-0.501308 -0.012281,-0.173017 0.1285731,-0.317797 0.3019197,-0.32388 z"
       style="fill:#000000;fill-opacity:1;stroke:none;stroke-width:43.62540436;stroke-linecap:round;stroke-linejoin:round;stroke-miterlimit:4;stroke-dasharray:none;stroke-opacity:1" />
    <path
       style="fill:#000000;fill-opacity:1;stroke:none;stroke-width:43.62540436;stroke-linecap:round;stroke-linejoin:round;stroke-miterlimit:4;stroke-dasharray:none;stroke-opacity:1"
       d="M 9.5815008,4.5323901 11.91366,4.4505486 c 0.173347,-0.00608 0.317797,0.128573 0.32388,0.3019196 0,0 -0.215168,0.2975013 -0.205704,0.4674849 0.145297,2.6095102 0.239529,6.4369939 0.320586,7.6664259 0.0161,0.244937 0.187143,0.472709 0.187143,0.472709 0.01078,0.173117 -0.128573,0.317797 -0.301919,0.32388 l -2.3321558,0.08184 c -0.173347,0.0061 -0.3177978,-0.128572 -0.3238809,-0.301919 0,0 0.2781411,-0.296828 0.2747709,-0.481629 C 9.8153837,10.733127 9.5595391,6.6175738 9.4419645,5.3575784 9.420516,5.1277243 9.2795808,4.8562707 9.2795808,4.8562707 9.2672972,4.6832532 9.4081538,4.5384733 9.5815008,4.5323901 Z"
       id="path1061"
       inkscape:connector-curvature="0"
       sodipodi:nodetypes="sssssssssssss" />
    <path
       sodipodi:nodetypes="sssssssssssss"
       inkscape:connector-curvature="0"
       id="path1063"
       d="m 15.234113,24.150485 2.328613,0.1524 c 0.173084,0.01133 0.303305,0.159789 0.291978,0.332871 0,0 -0.243913,0.274429 -0.251538,0.444505 -0.117072,2.610929 -0.407069,6.428574 -0.449686,7.659938 -0.0085,0.245316 0.138806,0.489091 0.138806,0.489091 -0.0066,0.173326 -0.159787,0.303304 -0.33287,0.291976 l -2.328612,-0.152399 c -0.173083,-0.01133 -0.303305,-0.159788 -0.291977,-0.332871 0,0 0.3065,-0.267444 0.321677,-0.451652 0.184611,-2.240918 0.342692,-6.361384 0.352043,-7.626819 0.0017,-0.230847 -0.111304,-0.515062 -0.111304,-0.515062 0.0051,-0.173377 0.159788,-0.303305 0.33287,-0.291978 z"
       style="fill:#000000;fill-opacity:1;stroke:none;stroke-width:43.62540436;stroke-linecap:round;stroke-linejoin:round;stroke-miterlimit:4;stroke-dasharray:none;stroke-opacity:1" />
    <path
       style="fill:#000000;fill-opacity:1;stroke:none;stroke-width:43.62540436;stroke-linecap:round;stroke-linejoin:round;stroke-miterlimit:4;stroke-dasharray:none;stroke-opacity:1"
       d="m 15.728812,14.649415 2.328613,0.152399 c 0.173083,0.01133 0.303305,0.159788 0.291977,0.332871 0,0 -0.243912,0.27443 -0.251538,0.444505 -0.117071,2.61093 -0.407069,6.428575 -0.449686,7.659939 -0.0085,0.245315 0.138806,0.48909 0.138806,0.48909 -0.0066,0.173325 -0.159788,0.303304 -0.332871,0.291976 l -2.328611,-0.152399 c -0.173083,-0.01133 -0.303305,-0.159787 -0.291977,-0.33287 0,0 0.3065,-0.267445 0.321676,-0.451654 0.184611,-2.240915 0.342693,-6.361384 0.352043,-7.626817 0.0017,-0.230846 -0.111303,-0.515064 -0.111303,-0.515064 0.0051,-0.173376 0.159788,-0.303304 0.332871,-0.291976 z"
       id="path1065"
       inkscape:connector-curvature="0"
       sodipodi:nodetypes="sssssssssssss" />
    <path
       sodipodi:nodetypes="sssssssssssss"
       inkscape:connector-curvature="0"
       id="path1069"
       d="m 20.919071,23.899279 2.32304,0.2217 c 0.172669,0.01648 0.29841,0.168753 0.281931,0.341421 0,0 -0.251979,0.267041 -0.264668,0.436815 -0.194797,2.606283 -0.59839,6.413595 -0.67767,7.643142 -0.01584,0.244953 0.124175,0.493009 0.124175,0.493009 -0.01179,0.173051 -0.168752,0.29841 -0.34142,0.281931 L 20.04142,33.095598 c -0.172669,-0.01648 -0.29841,-0.168753 -0.281931,-0.341421 0,0 0.314331,-0.258195 0.334988,-0.44187 0.251284,-2.234423 0.532042,-6.348352 0.579085,-7.612946 0.0086,-0.230694 -0.09591,-0.51815 -0.09591,-0.51815 0.0103,-0.173147 0.168752,-0.298411 0.34142,-0.281932 z"
       style="fill:#000000;fill-opacity:1;stroke:none;stroke-width:43.62540436;stroke-linecap:round;stroke-linejoin:round;stroke-miterlimit:4;stroke-dasharray:none;stroke-opacity:1" />
    <path
       style="fill:#000000;fill-opacity:1;stroke:none;stroke-width:43.62540436;stroke-linecap:round;stroke-linejoin:round;stroke-miterlimit:4;stroke-dasharray:none;stroke-opacity:1"
       d="m 21.69658,14.417162 2.32304,0.2217 c 0.172669,0.01648 0.29841,0.168752 0.281931,0.34142 0,0 -0.251978,0.267042 -0.264668,0.436815 -0.194797,2.606284 -0.59839,6.413596 -0.67767,7.643144 -0.01584,0.244952 0.124174,0.493008 0.124174,0.493008 -0.01179,0.17305 -0.168752,0.298409 -0.34142,0.28193 l -2.323038,-0.2217 c -0.172669,-0.01648 -0.29841,-0.168751 -0.281932,-0.341419 0,0 0.314332,-0.258197 0.334988,-0.441871 0.251284,-2.234421 0.532042,-6.348352 0.579084,-7.612946 0.0086,-0.230692 -0.09591,-0.51815 -0.09591,-0.51815 0.0103,-0.173146 0.168752,-0.29841 0.34142,-0.281931 z"
       id="path1071"
       inkscape:connector-curvature="0"
       sodipodi:nodetypes="sssssssssssss" />
    <path
       sodipodi:nodetypes="sssssssssssss"
       inkscape:connector-curvature="0"
       id="path1073"
       d="m 22.528314,4.7562032 2.32304,0.2216996 c 0.172669,0.016479 0.29841,0.1687526 0.281931,0.3414214 0,0 -0.251978,0.2670411 -0.264669,0.4368143 -0.194797,2.6062825 -0.59839,6.4135945 -0.67767,7.6431425 -0.01584,0.244953 0.124173,0.493008 0.124173,0.493008 -0.01179,0.17305 -0.168752,0.29841 -0.341421,0.281931 l -2.323036,-0.221699 c -0.172668,-0.01648 -0.29841,-0.168752 -0.281932,-0.341421 0,0 0.314331,-0.258196 0.334988,-0.44187 0.251284,-2.234422 0.532041,-6.3483511 0.579085,-7.6129454 0.0086,-0.2306927 -0.09591,-0.5181498 -0.09591,-0.5181498 0.0103,-0.1731468 0.168754,-0.2984103 0.341422,-0.2819316 z"
       style="fill:#000000;fill-opacity:1;stroke:none;stroke-width:43.62540436;stroke-linecap:round;stroke-linejoin:round;stroke-miterlimit:4;stroke-dasharray:none;stroke-opacity:1" />
    <g
       id="g1094"
       transform="translate(0.66145833,0.35435268)">
      <path
         sodipodi:nodetypes="cscsc"
         inkscape:connector-curvature="0"
         id="path1077"
         d="m 24.315119,13.892289 c 0.940746,-0.831803 1.416904,-2.042612 2.444443,-2.881405 0.465832,-0.380265 3.709416,-2.4094069 4.244025,-2.6911485 -0.523423,1.099178 -2.17036,2.4081935 -2.950919,3.4955165 -1.304072,1.816581 -1.557884,2.20653 -3.737549,2.077037 z"
         style="fill:#000000;fill-opacity:1;stroke:#000000;stroke-width:0.26458332px;stroke-linecap:butt;stroke-linejoin:miter;stroke-opacity:1" />
      <path
         style="fill:#000000;fill-opacity:1;stroke:#000000;stroke-width:0.2606566px;stroke-linecap:butt;stroke-linejoin:miter;stroke-opacity:1"
         d="m 24.315119,13.892289 c 1.217146,0.0644 2.369727,-0.467072 3.651782,-0.346915 0.581217,0.05447 4.207967,0.875595 4.769927,1.048573 -1.10951,0.418663 -3.140337,0.200792 -4.420029,0.431007 -2.137969,0.384618 -2.578802,0.485464 -4.00168,-1.132665 z"
         id="path1085"
         inkscape:connector-curvature="0"
         sodipodi:nodetypes="cscsc" />
      <path
         sodipodi:nodetypes="cscsc"
         inkscape:connector-curvature="0"
         id="path1087"
         d="m 25.157129,13.285194 c 0.873959,-0.298921 1.534015,-0.998529 2.469378,-1.276604 0.424044,-0.126067 3.206135,-0.574371 3.650152,-0.611672 -0.661675,0.608113 -2.151114,1.029235 -2.985733,1.552982 -1.394389,0.875017 -1.67581,1.070584 -3.133797,0.335294 z"
         style="fill:#000000;fill-opacity:1;stroke:#000000;stroke-width:0.1975303px;stroke-linecap:butt;stroke-linejoin:miter;stroke-opacity:1" />
    </g>
    <path
       style="fill:#000000;fill-opacity:1;stroke:#000000;stroke-width:0.2606566px;stroke-linecap:butt;stroke-linejoin:miter;stroke-opacity:1"
       d="M 9.6352959,23.795663 C 8.6452739,23.084714 7.3881019,22.910292 6.3735153,22.117375 5.9135529,21.757911 3.3030808,19.109705 2.9232745,18.660853 c 1.1600413,0.246161 2.7523294,1.525358 3.9539746,2.022006 2.0075768,0.829744 2.4331468,0.982695 2.7580468,3.112804 z"
       id="path1089"
       inkscape:connector-curvature="0"
       sodipodi:nodetypes="cscsc" />
  </g>
  <g
     inkscape:groupmode="layer"
     id="layer3"
     inkscape:label="drawing" />
</svg>
