<?xml version="1.0" encoding="UTF-8" standalone="no"?>
<!-- Created with Inkscape (http://www.inkscape.org/) -->

<svg
   xmlns:dc="http://purl.org/dc/elements/1.1/"
   xmlns:cc="http://creativecommons.org/ns#"
   xmlns:rdf="http://www.w3.org/1999/02/22-rdf-syntax-ns#"
   xmlns:svg="http://www.w3.org/2000/svg"
   xmlns="http://www.w3.org/2000/svg"
   xmlns:sodipodi="http://sodipodi.sourceforge.net/DTD/sodipodi-0.dtd"
   xmlns:inkscape="http://www.inkscape.org/namespaces/inkscape"
   width="36mm"
   height="36mm"
   viewBox="0 0 36 36"
   version="1.1"
   id="svg938"
   inkscape:version="0.92.3 (2405546, 2018-03-11)"
   sodipodi:docname="coffee.svg">
  <defs
     id="defs932">
    <inkscape:path-effect
       effect="spiro"
       id="path-effect1658"
       is_visible="true" />
  </defs>
  <sodipodi:namedview
     id="base"
     pagecolor="#ffffff"
     bordercolor="#666666"
     borderopacity="1.0"
     inkscape:pageopacity="0.0"
     inkscape:pageshadow="2"
     inkscape:zoom="3.959798"
     inkscape:cx="136.72548"
     inkscape:cy="27.491365"
     inkscape:document-units="mm"
     inkscape:current-layer="layer1"
     showgrid="false"
     inkscape:window-width="1920"
     inkscape:window-height="1136"
     inkscape:window-x="1920"
     inkscape:window-y="27"
     inkscape:window-maximized="1" />
  <metadata
     id="metadata935">
    <rdf:RDF>
      <cc:Work
         rdf:about="">
        <dc:format>image/svg+xml</dc:format>
        <dc:type
           rdf:resource="http://purl.org/dc/dcmitype/StillImage" />
        <dc:title />
      </cc:Work>
    </rdf:RDF>
  </metadata>
  <g
     inkscape:label="grid"
     inkscape:groupmode="layer"
     id="layer1"
     style="display:inline">
    <rect
       y="-0.5"
       x="0.5"
       height="36"
       width="36"
       id="rect852"
       style="color:#000000;display:inline;overflow:visible;visibility:visible;opacity:1;fill:none;fill-opacity:1;fill-rule:nonzero;stroke:#000000;stroke-width:1;stroke-linecap:round;stroke-linejoin:round;stroke-miterlimit:4;stroke-dasharray:none;stroke-dashoffset:0;stroke-opacity:1;marker:none;enable-background:accumulate" />
  </g>
  <g
     inkscape:groupmode="layer"
     id="layer3"
     inkscape:label="drawing"
     style="display:inline">
    <path
       style="display:inline;fill:none;stroke:#000000;stroke-width:1.06500006;stroke-linecap:butt;stroke-linejoin:miter;stroke-miterlimit:4;stroke-dasharray:none;stroke-opacity:1"
       d="m 12.271576,14.4933 h 11.622767 c -0.117269,1.28825 -0.481303,1.01171 -0.576306,5.32285 -0.095,4.31114 -11.127534,2.96431 -11.303058,-0.0212 -0.175524,-2.98551 -0.410106,-5.53279 0.256597,-5.30163 z"
       id="path5319"
       inkscape:connector-curvature="0"
       sodipodi:nodetypes="cczzcc" />
    <path
       style="display:inline;fill:none;stroke:#000000;stroke-width:0.96499997;stroke-linecap:round;stroke-linejoin:miter;stroke-miterlimit:4;stroke-dasharray:none;stroke-opacity:1"
       d="m 23.666161,15.59897 c 4.95691,-1.94934 5.173715,1.86086 0.510048,3.62642 -0.277764,0.0852 -0.569504,0.13813 -0.860862,0.11522"
       id="path5325"
       inkscape:connector-curvature="0"
       sodipodi:nodetypes="ccc" />
    <path
       sodipodi:nodetypes="cc"
       inkscape:connector-curvature="0"
       id="path5338"
       d="m 8.532025,22.96559 c 4.30666,2.5102 9.693157,3.62725 18.241146,0.8018"
       style="display:inline;fill:none;stroke:#000000;stroke-width:0.66500002;stroke-linecap:round;stroke-linejoin:miter;stroke-miterlimit:4;stroke-dasharray:none;stroke-opacity:1" />
    <path
       style="display:inline;fill:none;stroke:#000000;stroke-width:0.565;stroke-linecap:round;stroke-linejoin:miter;stroke-miterlimit:4;stroke-dasharray:none;stroke-opacity:1"
       d="m 14.54559,7.33032 c -0.58431,0.26212 -1.29471,0.7174 -1.146615,1.46578 0.05859,0.7391 0.793233,1.10152 1.074393,1.72295 0.229534,0.52673 0.243646,1.1815 -0.231412,1.57403 -0.293339,0.24652 0.0051,0.75821 -0.364511,0.91668"
       id="path5340"
       inkscape:connector-curvature="0" />
    <path
       inkscape:connector-curvature="0"
       id="path5346"
       d="m 14.54559,7.33032 c -0.58431,0.26212 -1.29471,0.7174 -1.146615,1.46578 0.05859,0.7391 0.793233,1.10152 1.074393,1.72295 0.229534,0.52673 0.243646,1.1815 -0.231412,1.57403 -0.293339,0.24652 0.0051,0.75821 -0.364511,0.91668"
       style="display:inline;fill:none;stroke:#000000;stroke-width:0.565;stroke-linecap:round;stroke-linejoin:miter;stroke-miterlimit:4;stroke-dasharray:none;stroke-opacity:1" />
    <path
       style="display:inline;fill:none;stroke:#000000;stroke-width:0.565;stroke-linecap:round;stroke-linejoin:miter;stroke-miterlimit:4;stroke-dasharray:none;stroke-opacity:1"
       d="m 16.483294,7.39714 c -0.58431,0.26212 -1.29471,0.7174 -1.146615,1.46578 0.05859,0.7391 0.793233,1.10152 1.074393,1.72295 0.229534,0.52673 0.243646,1.1815 -0.231412,1.57403 -0.293339,0.24652 0.0051,0.75821 -0.364511,0.91668"
       id="path5348"
       inkscape:connector-curvature="0" />
    <path
       inkscape:connector-curvature="0"
       id="path5350"
       d="m 18.755085,7.19669 c -0.58431,0.26212 -1.29471,0.7174 -1.146615,1.46578 0.05859,0.7391 0.793233,1.10152 1.074393,1.72295 0.229534,0.52673 0.243646,1.1815 -0.231412,1.57403 -0.293339,0.24652 0.0051,0.75821 -0.364511,0.91668"
       style="display:inline;fill:none;stroke:#000000;stroke-width:0.565;stroke-linecap:round;stroke-linejoin:miter;stroke-miterlimit:4;stroke-dasharray:none;stroke-opacity:1" />
    <path
       style="display:inline;fill:none;stroke:#000000;stroke-width:0.565;stroke-linecap:round;stroke-linejoin:miter;stroke-miterlimit:4;stroke-dasharray:none;stroke-opacity:1"
       d="m 21.093693,7.33032 c -0.58431,0.26212 -1.29471,0.7174 -1.146615,1.46578 0.05859,0.7391 0.793233,1.10152 1.074393,1.72295 0.229534,0.52673 0.243646,1.1815 -0.231412,1.57403 -0.293339,0.24652 0.0051,0.75821 -0.364511,0.91668"
       id="path5352"
       inkscape:connector-curvature="0" />
  </g>
</svg>
