<?xml version="1.0" encoding="UTF-8" standalone="no"?>
<!-- Created with Inkscape (http://www.inkscape.org/) -->

<svg
   xmlns:dc="http://purl.org/dc/elements/1.1/"
   xmlns:cc="http://creativecommons.org/ns#"
   xmlns:rdf="http://www.w3.org/1999/02/22-rdf-syntax-ns#"
   xmlns:svg="http://www.w3.org/2000/svg"
   xmlns="http://www.w3.org/2000/svg"
   xmlns:sodipodi="http://sodipodi.sourceforge.net/DTD/sodipodi-0.dtd"
   xmlns:inkscape="http://www.inkscape.org/namespaces/inkscape"
   width="36mm"
   height="36mm"
   viewBox="0 0 36 36"
   version="1.1"
   id="svg938"
   inkscape:version="0.92.3 (2405546, 2018-03-11)"
   sodipodi:docname="cow.svg">
  <defs
     id="defs932">
    <inkscape:path-effect
       effect="spiro"
       id="path-effect1658"
       is_visible="true" />
  </defs>
  <sodipodi:namedview
     id="base"
     pagecolor="#ffffff"
     bordercolor="#666666"
     borderopacity="1.0"
     inkscape:pageopacity="0.0"
     inkscape:pageshadow="2"
     inkscape:zoom="3.959798"
     inkscape:cx="161.49042"
     inkscape:cy="72.947066"
     inkscape:document-units="mm"
     inkscape:current-layer="layer1"
     showgrid="false"
     inkscape:window-width="1920"
     inkscape:window-height="1136"
     inkscape:window-x="1920"
     inkscape:window-y="27"
     inkscape:window-maximized="1" />
  <metadata
     id="metadata935">
    <rdf:RDF>
      <cc:Work
         rdf:about="">
        <dc:format>image/svg+xml</dc:format>
        <dc:type
           rdf:resource="http://purl.org/dc/dcmitype/StillImage" />
        <dc:title />
      </cc:Work>
    </rdf:RDF>
  </metadata>
  <g
     inkscape:label="grid"
     inkscape:groupmode="layer"
     id="layer1"
     style="display:inline">
    <rect
       y="-0.5"
       x="0.5"
       height="36"
       width="36"
       id="rect852"
       style="color:#000000;display:inline;overflow:visible;visibility:visible;opacity:1;fill:none;fill-opacity:1;fill-rule:nonzero;stroke:#000000;stroke-width:1;stroke-linecap:round;stroke-linejoin:round;stroke-miterlimit:4;stroke-dasharray:none;stroke-dashoffset:0;stroke-opacity:1;marker:none;enable-background:accumulate" />
  </g>
  <g
     inkscape:groupmode="layer"
     id="layer3"
     inkscape:label="drawing"
     style="display:inline">
    <text
       xml:space="preserve"
       style="font-style:normal;font-weight:normal;font-size:10.58333302px;line-height:1.25;font-family:sans-serif;letter-spacing:0px;word-spacing:0px;fill:#000000;fill-opacity:1;stroke:none;stroke-width:0.26458332"
       x="2.4600205"
       y="12.209088"
       id="text5524"
       transform="rotate(-18.608686)"><tspan
         sodipodi:role="line"
         id="tspan5522"
         x="2.4600205"
         y="12.209088"
         style="font-size:4.93888903px;stroke-width:0.26458332">Mooo</tspan></text>
    <path
       style="display:inline;fill:#000000;stroke:#000000;stroke-width:0.26458332px;stroke-linecap:butt;stroke-linejoin:miter;stroke-opacity:1"
       d="m 13.676964,16.78498 c 1.057726,-4.2295 3.298606,-4.65878 5.198336,-4.80935 1.89973,-0.15057 4.108724,0.68531 5.322984,4.52671 0.521479,0.66956 1.248687,1.17697 1.221028,3.05422 -0.270734,1.28342 -1.354295,0.66123 -1.559246,3.2005 -1.69893,-0.006 -1.423139,-1.99752 -4.955939,-1.6156 -3.970206,-0.0901 -2.324071,1.23741 -4.649643,1.44107 -0.130232,-2.60849 -1.19652,-1.42548 -1.514562,-3.28635 -0.05378,-1.56845 0.254896,-1.6122 0.937042,-2.5112 z"
       id="path5627"
       inkscape:connector-curvature="0"
       sodipodi:nodetypes="czccccccc" />
    <path
       style="display:inline;fill:#000000;stroke:#000000;stroke-width:0.26458332px;stroke-linecap:butt;stroke-linejoin:miter;stroke-opacity:1"
       d="m 7.75733,14.20174 c 0.592195,2.02717 2.293795,4.28412 4.526587,4.11921 0.46776,-0.34141 0.09659,-0.79792 0.630143,-1.3233 0.345982,-0.31013 0.542238,-0.76027 0.55441,-1.22253 0.04852,-0.43286 -0.01553,-0.9311 0.287318,-1.28572 -1.13801,-1.48312 -6.300084,-1.68743 -5.998458,-0.28766 z"
       id="path5618"
       inkscape:connector-curvature="0"
       sodipodi:nodetypes="cccccc" />
    <path
       sodipodi:nodetypes="cccccc"
       inkscape:connector-curvature="0"
       id="path5625"
       d="m 30.536445,14.20174 c -0.592195,2.02717 -2.293795,4.28412 -4.526587,4.11921 -0.46776,-0.34141 -0.09659,-0.79792 -0.630143,-1.3233 -0.345982,-0.31013 -0.542238,-0.76027 -0.55441,-1.22253 -0.04852,-0.43286 0.01553,-0.9311 -0.287318,-1.28572 1.13801,-1.48312 6.300084,-1.68743 5.998458,-0.28766 z"
       style="display:inline;fill:#000000;stroke:#000000;stroke-width:0.26458332px;stroke-linecap:butt;stroke-linejoin:miter;stroke-opacity:1" />
    <path
       style="fill:none;stroke:#000000;stroke-width:0.26458332px;stroke-linecap:butt;stroke-linejoin:miter;stroke-opacity:1"
       d="m 14.762747,14.04547 c -0.53772,-0.50873 -1.025873,-1.10329 -1.171511,-1.8484 -0.162725,-0.56932 -0.34828,-1.15947 -0.332121,-1.75405 0.397444,0.36383 0.912288,0.95075 1.503643,1.22037 0.601735,0.38978 1.32278,0.63475 2.038084,0.6779"
       id="path5637"
       inkscape:connector-curvature="0" />
    <path
       inkscape:connector-curvature="0"
       id="path5644"
       d="m 23.109382,14.04547 c 0.53772,-0.50873 1.025873,-1.10329 1.171511,-1.8484 0.162725,-0.56932 0.34828,-1.15947 0.332121,-1.75405 -0.397444,0.36383 -0.912288,0.95075 -1.503643,1.22037 -0.601735,0.38978 -1.32278,0.63475 -2.038084,0.6779"
       style="fill:none;stroke:#000000;stroke-width:0.26458332px;stroke-linecap:butt;stroke-linejoin:miter;stroke-opacity:1" />
    <ellipse
       style="fill:#ffffff;fill-opacity:1;stroke:none;stroke-width:0.56499994;stroke-linecap:round;stroke-linejoin:round;stroke-miterlimit:4;stroke-dasharray:none;stroke-opacity:1"
       id="path5646"
       cx="15.602493"
       cy="18.143127"
       rx="0.35435268"
       ry="0.57877606" />
    <ellipse
       ry="0.57877606"
       rx="0.35435268"
       cy="18.143127"
       cx="22.14621"
       id="ellipse5648"
       style="fill:#ffffff;fill-opacity:1;stroke:none;stroke-width:0.56499994;stroke-linecap:round;stroke-linejoin:round;stroke-miterlimit:4;stroke-dasharray:none;stroke-opacity:1" />
    <path
       style="fill:none;stroke:#000000;stroke-width:0.26458332px;stroke-linecap:butt;stroke-linejoin:miter;stroke-opacity:1"
       d="m 15.392257,23.12015 c 1.335355,-0.85076 1.687241,-1.60939 3.5529,-1.53452 3.338066,-0.0431 1.129414,1.3152 4.914909,1.7006 1.036467,1.26965 0.131747,3.2086 -1.521347,4.13357 -1.911779,0.32715 -3.32854,-1.12409 -5.232394,-0.18244 -2.084714,0.63627 -3.440585,-0.97309 -3.246026,-2.84628 0.04265,-1.08573 0.916364,-0.94547 1.531958,-1.27091 z"
       id="path5650"
       inkscape:connector-curvature="0"
       sodipodi:nodetypes="cccccccc" />
    <ellipse
       style="fill:#000000;fill-opacity:1;stroke:none;stroke-width:0.56499994;stroke-linecap:round;stroke-linejoin:round;stroke-miterlimit:4;stroke-dasharray:none;stroke-opacity:1"
       id="path5658"
       cx="17.256134"
       cy="25.100266"
       rx="1.1811756"
       ry="1.0394346" />
    <ellipse
       ry="1.0394346"
       rx="1.1811756"
       cy="25.100266"
       cx="20.960297"
       id="ellipse5660"
       style="fill:#000000;fill-opacity:1;stroke:none;stroke-width:0.56499994;stroke-linecap:round;stroke-linejoin:round;stroke-miterlimit:4;stroke-dasharray:none;stroke-opacity:1" />
    <path
       style="fill:#000000;stroke:#000000;stroke-width:0.26458332px;stroke-linecap:butt;stroke-linejoin:miter;stroke-opacity:1"
       d="m 16.58252,28.06367 c 0.598593,0.10922 1.134997,0.46011 1.75345,0.50268 0.585716,0.067 1.175434,0.0378 1.758237,0.12978 0.458092,-0.0165 1.040117,0.14309 1.367117,-0.27652 0.21914,-0.22385 0.442453,-0.48945 -0.0453,-0.43775 -0.526191,-0.0132 -1.024717,-0.1688 -1.508267,-0.36341 -0.45528,-0.19187 -0.945868,-0.24 -1.434551,-0.17804 -0.569629,0.0662 -1.053703,0.42183 -1.618501,0.51215 -0.09322,0.0304 -0.184975,0.0662 -0.272188,0.11111 z"
       id="path5662"
       inkscape:connector-curvature="0" />
  </g>
</svg>
