<?xml version="1.0" encoding="UTF-8" standalone="no"?>
<!-- Created with Inkscape (http://www.inkscape.org/) -->

<svg
   xmlns:dc="http://purl.org/dc/elements/1.1/"
   xmlns:cc="http://creativecommons.org/ns#"
   xmlns:rdf="http://www.w3.org/1999/02/22-rdf-syntax-ns#"
   xmlns:svg="http://www.w3.org/2000/svg"
   xmlns="http://www.w3.org/2000/svg"
   xmlns:sodipodi="http://sodipodi.sourceforge.net/DTD/sodipodi-0.dtd"
   xmlns:inkscape="http://www.inkscape.org/namespaces/inkscape"
   width="36mm"
   height="36mm"
   viewBox="0 0 36 36"
   version="1.1"
   id="svg938"
   inkscape:version="0.92.3 (2405546, 2018-03-11)"
   sodipodi:docname="duck.svg">
  <defs
     id="defs932">
    <inkscape:path-effect
       effect="spiro"
       id="path-effect1658"
       is_visible="true" />
  </defs>
  <sodipodi:namedview
     id="base"
     pagecolor="#ffffff"
     bordercolor="#666666"
     borderopacity="1.0"
     inkscape:pageopacity="0.0"
     inkscape:pageshadow="2"
     inkscape:zoom="2.8"
     inkscape:cx="-16.435424"
     inkscape:cy="127.14189"
     inkscape:document-units="mm"
     inkscape:current-layer="layer1"
     showgrid="false"
     inkscape:window-width="1920"
     inkscape:window-height="1136"
     inkscape:window-x="1920"
     inkscape:window-y="27"
     inkscape:window-maximized="1" />
  <metadata
     id="metadata935">
    <rdf:RDF>
      <cc:Work
         rdf:about="">
        <dc:format>image/svg+xml</dc:format>
        <dc:type
           rdf:resource="http://purl.org/dc/dcmitype/StillImage" />
        <dc:title></dc:title>
      </cc:Work>
    </rdf:RDF>
  </metadata>
  <g
     inkscape:label="grid"
     inkscape:groupmode="layer"
     id="layer1"
     style="display:inline">
    <rect
       y="-0.5"
       x="0.5"
       height="36"
       width="36"
       id="rect852"
       style="color:#000000;display:inline;overflow:visible;visibility:visible;opacity:1;fill:none;fill-opacity:1;fill-rule:nonzero;stroke:#000000;stroke-width:1;stroke-linecap:round;stroke-linejoin:round;stroke-miterlimit:4;stroke-dasharray:none;stroke-dashoffset:0;stroke-opacity:1;marker:none;enable-background:accumulate" />
    <path
       style="fill:none;stroke:#000000;stroke-width:0.565;stroke-linecap:butt;stroke-linejoin:miter;stroke-opacity:1;stroke-miterlimit:4;stroke-dasharray:none"
       d="M 28.387764,7.6575176 C 27.986801,6.1068918 25.513445,3.4582787 23.054497,5.0710331 20.867115,6.2855996 19.711835,8.759104 19.923842,11.214347 19.913502,14.127386 18.577453,16.782696 15.880078,18.700875 12.507932,20.444617 8.7396202,17.326628 5.5624276,15.808987 5.3840366,15.745554 4.3494595,15.22925 4.2640821,15.29671 4.0747799,15.446286 4.9539662,16.3724 4.7143473,16.652336 4.5657089,16.825984 3.9890128,15.803347 3.8086351,16.006835 c -0.060039,0.06773 0.902762,2.184893 0.8796146,2.354879 -0.021648,0.158976 -1.0312894,-1.634318 -1.0278924,-1.421406 0.00967,0.60609 0.106676,1.361195 0.2104991,1.869526 0.3224467,3.448189 3.7170095,9.242707 6.9299166,10.086766 3.652568,1.16871 11.138668,2.0226 16.217834,-2.859884 2.638362,-3.004771 -3.306637,-9.406881 -3.495357,-13.114618 0.396264,-2.858657 5.85247,-2.337589 7.756085,-2.394632 2.102344,-0.227068 3.765028,-1.8373873 0.821058,-1.6706391 -1.086927,-0.00553 -3.183308,-0.2376482 -3.712629,-1.1993093 z"
       id="path1011"
       inkscape:connector-curvature="0"
       sodipodi:nodetypes="cccccsssssccccccc" />
    <path
       sodipodi:nodetypes="ccccssscc"
       inkscape:connector-curvature="0"
       id="path1021"
       d="m 14.487908,29.77763 c -0.0075,0.679985 0.184576,1.600276 -0.115183,2.217112 -0.768764,1.13655 -2.617631,1.930194 1.505824,1.794531 1.882776,0.0086 3.765845,0.01072 5.648695,-8e-4 0.561477,0.03881 -1.492914,-0.478007 -1.016503,-0.579363 0.142371,-0.03029 1.270455,-0.182028 1.173918,-0.332203 -0.125227,-0.194806 -1.490031,-0.398386 -1.263156,-0.448572 0.488974,-0.108164 1.689018,-0.583489 1.335896,-0.588046 -6.045561,-0.259157 -5.532256,0.810919 -5.899767,-1.820485"
       style="fill:#000000;fill-opacity:1;stroke:#000000;stroke-width:0.26458332px;stroke-linecap:butt;stroke-linejoin:miter;stroke-opacity:1" />
    <ellipse
       style="fill:#000000;fill-opacity:1;stroke:none;stroke-width:0.26499999;stroke-linecap:square;stroke-linejoin:round;stroke-miterlimit:4;stroke-dasharray:none;stroke-opacity:1"
       id="path1023"
       cx="25.749626"
       cy="7.533668"
       rx="0.8504464"
       ry="0.77957588" />
    <path
       style="fill:none;stroke:#000000;stroke-width:0.565;stroke-linecap:round;stroke-linejoin:miter;stroke-miterlimit:4;stroke-dasharray:none;stroke-opacity:1"
       d="m 33.620801,9.4777153 c -2.114855,0.1141991 -3.431467,0.5797557 -5.234838,0.075417"
       id="path1025"
       inkscape:connector-curvature="0"
       sodipodi:nodetypes="cc" />
    <path
       style="fill:none;stroke:#000000;stroke-width:0.565;stroke-linecap:butt;stroke-linejoin:miter;stroke-opacity:1;stroke-miterlimit:4;stroke-dasharray:none"
       d="m 22.773065,22.014881 c 0.90978,0.833351 -0.844086,2.360435 -1.591782,3.050988 -2.061597,3.210127 -12.8717944,1.762297 -15.6533812,-4.562893"
       id="path1028"
       inkscape:connector-curvature="0"
       sodipodi:nodetypes="ccc" />
    <text
       xml:space="preserve"
       style="font-style:normal;font-weight:normal;font-size:4.64348793px;line-height:1.25;font-family:sans-serif;letter-spacing:0px;word-spacing:0px;fill:#000000;fill-opacity:1;stroke:none;stroke-width:0.1160872"
       x="-1.9693716"
       y="14.928629"
       id="text1035"
       transform="rotate(-33.304769)"><tspan
         sodipodi:role="line"
         id="tspan1033"
         x="-1.9693716"
         y="14.928629"
         style="stroke-width:0.1160872">Quack?</tspan></text>
  </g>
  <g
     inkscape:groupmode="layer"
     id="layer3"
     inkscape:label="drawing" />
</svg>
