<?xml version="1.0" encoding="UTF-8" standalone="no"?>
<!-- Created with Inkscape (http://www.inkscape.org/) -->

<svg
   xmlns:dc="http://purl.org/dc/elements/1.1/"
   xmlns:cc="http://creativecommons.org/ns#"
   xmlns:rdf="http://www.w3.org/1999/02/22-rdf-syntax-ns#"
   xmlns:svg="http://www.w3.org/2000/svg"
   xmlns="http://www.w3.org/2000/svg"
   xmlns:sodipodi="http://sodipodi.sourceforge.net/DTD/sodipodi-0.dtd"
   xmlns:inkscape="http://www.inkscape.org/namespaces/inkscape"
   width="36mm"
   height="36mm"
   viewBox="0 0 36 36"
   version="1.1"
   id="svg938"
   inkscape:version="0.92.3 (2405546, 2018-03-11)"
   sodipodi:docname="horse.svg">
  <defs
     id="defs932">
    <inkscape:path-effect
       effect="spiro"
       id="path-effect1658"
       is_visible="true" />
  </defs>
  <sodipodi:namedview
     id="base"
     pagecolor="#ffffff"
     bordercolor="#666666"
     borderopacity="1.0"
     inkscape:pageopacity="0.0"
     inkscape:pageshadow="2"
     inkscape:zoom="0.70000001"
     inkscape:cx="-439.9202"
     inkscape:cy="97.99944"
     inkscape:document-units="mm"
     inkscape:current-layer="layer1"
     showgrid="false"
     inkscape:window-width="1920"
     inkscape:window-height="1136"
     inkscape:window-x="1920"
     inkscape:window-y="27"
     inkscape:window-maximized="1" />
  <metadata
     id="metadata935">
    <rdf:RDF>
      <cc:Work
         rdf:about="">
        <dc:format>image/svg+xml</dc:format>
        <dc:type
           rdf:resource="http://purl.org/dc/dcmitype/StillImage" />
        <dc:title />
      </cc:Work>
    </rdf:RDF>
  </metadata>
  <g
     inkscape:label="grid"
     inkscape:groupmode="layer"
     id="layer1">
    <rect
       y="-0.5"
       x="0.5"
       height="36"
       width="36"
       id="rect852"
       style="color:#000000;display:inline;overflow:visible;visibility:visible;opacity:1;fill:none;fill-opacity:1;fill-rule:nonzero;stroke:#000000;stroke-width:1;stroke-linecap:round;stroke-linejoin:round;stroke-miterlimit:4;stroke-dasharray:none;stroke-dashoffset:0;stroke-opacity:1;marker:none;enable-background:accumulate" />
  </g>
  <g
     inkscape:groupmode="layer"
     id="layer3"
     inkscape:label="drawing">
    <path
       style="fill:#000000;stroke:#000000;stroke-width:0.26499999;stroke-linecap:round;stroke-linejoin:round;stroke-miterlimit:4;stroke-dasharray:none;stroke-opacity:1"
       d="m 17.851835,4.81546 c 0.213024,0.54321 0.339343,0.47356 0.213024,0.54321 -0.336353,0.23575 -0.943214,0.61622 -1.397038,1.24346 -0.453823,0.62724 -0.680303,1.37367 -1.58412,2.15705 1.229015,-0.48532 0.904821,-0.36927 1.294682,-0.35787 -0.499512,0.98014 -1.019893,1.25585 -1.565568,2.30289 0.504214,-0.37776 0.658401,-0.5402 1.089598,-0.58729 -0.01357,0.65498 -1.636486,2.47305 -0.185693,3.71618 -0.324228,-0.60508 -0.135469,-2.15001 0.621112,-1.12996 0.20908,0.88296 -0.361531,2.02986 0.598592,2.62563 0.551749,0.22147 0.780668,-0.20833 1.308586,-0.35983 0.797485,-0.27328 1.430177,-0.89703 2.271497,-1.05152 0.647031,-0.39282 1.703976,-0.1203 1.993863,-1.01071 0.420156,-0.67557 0.02823,-1.43474 -0.378657,-2.01013 C 21.509032,10.22883 20.662975,9.74184 20.298471,8.86501 20.138854,8.58533 19.541588,7.84449 20.007529,8.40137 20.922415,8.92332 21.665777,8.6055 22.403228,8.81813 23.483054,9.51523 24.103267,8.31308 23.489188,7.641 22.740865,7.03671 21.777926,6.72268 21.259729,5.8247 20.799658,5.7352 20.437414,4.93941 21.132765,5.00343 20.756321,5.13378 20.080582,5.38555 20.372059,4.72521 c -0.372619,0.2659 -0.822198,0.44375 -1.375737,0.38047 -0.131102,-0.0472 -0.58249,-0.001 -0.435777,0.0818 z"
       id="path1060"
       inkscape:connector-curvature="0"
       sodipodi:nodetypes="cczccccccccccccccccccccc" />
    <path
       style="fill:#000000;stroke:#000000;stroke-width:0.26458332px;stroke-linecap:butt;stroke-linejoin:miter;stroke-opacity:1"
       d="m 22.663903,12.32492 c 0.895658,0.39939 0.848229,1.88093 2.024175,1.89296 1.001622,0.3828 2.280933,-1.07524 2.913059,0.12723 0.433784,1.00864 0.658082,2.23543 0.09171,3.24386 -0.259124,0.41797 -1.058242,1.85368 -1.260311,0.80415 -0.348012,-0.629 0.334609,-1.0284 0.647152,-1.19484 -0.04992,-0.70686 0.660715,-2.15696 -0.383804,-2.29461 -1.054524,0.14133 -2.047407,0.58906 -3.115827,0.67894 -0.798937,0.10033 0.528921,0.84794 0.725052,1.26331 0.373697,0.51565 1.067764,1.09341 0.780738,1.78814 -0.487633,0.87647 -0.513203,1.91238 -0.918213,2.77679 -0.563653,0.37884 -1.226417,1.07747 -1.887517,1.03518 -0.498139,-0.74461 0.138555,-1.6036 0.963777,-1.4874 0.780349,-0.45368 0.95597,-1.5652 0.766605,-2.37386 -0.464323,-0.68042 -1.686265,-1.0533 -2.279285,-0.29049 -1.146786,0.98066 -2.511861,1.68501 -3.89126,2.28688 -0.485363,1.07041 -0.2098,2.31681 -0.694327,3.3958 -0.393113,0.79015 0.327702,2.10795 0.784974,2.72593 0.522201,0.64375 0.811951,0.77032 1.3751,1.38307 0.509062,0.95031 -1.210248,0.6856 -1.653029,0.592 0.04732,-0.62936 0.03651,-1.35952 -0.423033,-1.85604 -0.331692,-0.77276 -1.104668,-1.10331 -1.588568,-1.72788 -0.153257,-0.59139 -0.02611,-1.68787 -0.834069,-0.42782 -0.517058,0.46058 -1.006948,0.83951 -0.498956,1.5861 0.309416,0.58208 0.683372,1.12575 0.944688,1.72987 0.305227,0.55993 1.07356,0.55686 0.964014,1.25952 -0.61241,0.0291 -0.89107,0.0178 -1.514363,0.0424 0.06379,-1.03625 -0.296571,-2.12479 -1.162224,-2.82267 -0.75527,-0.44798 -0.766171,-1.31733 -0.05297,-1.81223 0.200411,-0.78272 0.306974,-1.4797 -0.08802,-2.27045 -0.455626,-0.67238 -0.660905,-1.73892 -0.588065,-2.5795 -0.03949,-1.05882 0.821824,-1.87309 1.621976,-2.43362 0.743882,-0.73169 1.719022,-1.19476 2.340863,-2.05182 0.612176,-0.54642 1.293622,-1.07599 2.123656,-1.22501 0.780241,-0.17763 1.527116,-0.47212 2.267492,-0.77412 0.452343,-0.38026 1.143982,-0.56434 1.498811,-0.98978 z"
       id="path1064"
       inkscape:connector-curvature="0"
       sodipodi:nodetypes="ccccccccccccccccccccccccccccccccccccc" />
    <path
       style="fill:#000000;stroke:#000000;stroke-width:0.26458332px;stroke-linecap:butt;stroke-linejoin:miter;stroke-opacity:1"
       d="m 12.838034,18.90725 c -0.744052,-0.0754 -1.476802,0.2121 -2.117286,0.56387 -0.494346,0.31396 -0.907499,0.9546 -0.855396,2.32203 0.0521,1.36743 0.140379,1.63708 1.319339,3.62263 0.130589,0.49332 -0.156564,1.16672 -0.07577,1.67707 1.319935,-0.71671 0.322263,-3.75414 0.346586,-4.39243 -0.178971,-0.48359 0.03562,-0.46158 0.318917,-0.0472 0.378465,0.25443 0.422555,0.6212 0.623355,1.12911 0.196409,-1.22617 -0.218577,-1.67639 -0.536435,-2.12746 -0.355885,-0.44185 -0.107626,-0.97494 0.172548,-1.4918 0.09532,-0.53936 0.901039,-0.5859 0.851114,-1.11322 -0.02259,-0.0451 0.04808,-0.1504 -0.04697,-0.14255 z"
       id="path1075"
       inkscape:connector-curvature="0"
       sodipodi:nodetypes="cczcccccccccc" />
  </g>
</svg>
