<?xml version="1.0" encoding="UTF-8" standalone="no"?>
<!-- Created with Inkscape (http://www.inkscape.org/) -->

<svg
   xmlns:dc="http://purl.org/dc/elements/1.1/"
   xmlns:cc="http://creativecommons.org/ns#"
   xmlns:rdf="http://www.w3.org/1999/02/22-rdf-syntax-ns#"
   xmlns:svg="http://www.w3.org/2000/svg"
   xmlns="http://www.w3.org/2000/svg"
   xmlns:sodipodi="http://sodipodi.sourceforge.net/DTD/sodipodi-0.dtd"
   xmlns:inkscape="http://www.inkscape.org/namespaces/inkscape"
   width="36mm"
   height="36mm"
   viewBox="0 0 36 36"
   version="1.1"
   id="svg938"
   inkscape:version="0.92.3 (2405546, 2018-03-11)"
   sodipodi:docname="piggy.svg">
  <defs
     id="defs932">
    <inkscape:path-effect
       effect="spiro"
       id="path-effect1658"
       is_visible="true" />
  </defs>
  <sodipodi:namedview
     id="base"
     pagecolor="#ffffff"
     bordercolor="#666666"
     borderopacity="1.0"
     inkscape:pageopacity="0.0"
     inkscape:pageshadow="2"
     inkscape:zoom="3.959798"
     inkscape:cx="-1.2172688"
     inkscape:cy="49.141396"
     inkscape:document-units="mm"
     inkscape:current-layer="layer1"
     showgrid="false"
     inkscape:window-width="1920"
     inkscape:window-height="1136"
     inkscape:window-x="1920"
     inkscape:window-y="27"
     inkscape:window-maximized="1" />
  <metadata
     id="metadata935">
    <rdf:RDF>
      <cc:Work
         rdf:about="">
        <dc:format>image/svg+xml</dc:format>
        <dc:type
           rdf:resource="http://purl.org/dc/dcmitype/StillImage" />
        <dc:title></dc:title>
      </cc:Work>
    </rdf:RDF>
  </metadata>
  <g
     inkscape:label="grid"
     inkscape:groupmode="layer"
     id="layer1">
    <rect
       y="-0.5"
       x="0.5"
       height="36"
       width="36"
       id="rect852"
       style="color:#000000;display:inline;overflow:visible;visibility:visible;opacity:1;fill:none;fill-opacity:1;fill-rule:nonzero;stroke:#000000;stroke-width:1;stroke-linecap:round;stroke-linejoin:round;stroke-miterlimit:4;stroke-dasharray:none;stroke-dashoffset:0;stroke-opacity:1;marker:none;enable-background:accumulate" />
    <path
       style="fill:none;stroke:#000000;stroke-width:0.96499997;stroke-linecap:butt;stroke-linejoin:miter;stroke-miterlimit:4;stroke-dasharray:none;stroke-opacity:1"
       d="M 10.441592,12.801711 C 8.917013,12.751729 7.4684282,11.977152 6.4352954,10.892195 5.9902663,10.295931 5.2491793,8.069402 5.5035769,8.189963 c 0.5984783,2.037729 1.0588267,4.154042 0.8501936,6.288897 -0.010092,1.377875 1.0354841,2.715549 2.3519749,3.055004 l 0.2711886,-0.0074"
       id="path965"
       inkscape:connector-curvature="0" />
    <path
       inkscape:connector-curvature="0"
       id="path972"
       d="m 26.680197,12.801711 c 1.524579,-0.04998 2.973164,-0.824559 4.006297,-1.909516 0.445029,-0.596264 1.186116,-2.822793 0.931718,-2.702232 -0.598478,2.037729 -1.058826,4.154042 -0.850193,6.288897 0.01009,1.377875 -1.035484,2.715549 -2.351975,3.055004 l -0.271189,-0.0074"
       style="fill:none;stroke:#000000;stroke-width:0.96499997;stroke-linecap:butt;stroke-linejoin:miter;stroke-miterlimit:4;stroke-dasharray:none;stroke-opacity:1" />
    <path
       style="fill:none;stroke:#000000;stroke-width:0.765;stroke-linecap:butt;stroke-linejoin:miter;stroke-opacity:1;stroke-miterlimit:4;stroke-dasharray:none"
       d="M 18.56808,8.7857144 C 16.652793,8.8627825 16.285029,4.7547567 18.419862,5.9481016 19.228133,7.4745624 16.552266,8.1070424 16.332699,6.3746966 15.50123,4.4596699 17.348655,3.2446515 18.99332,4.2500022"
       id="path974"
       inkscape:connector-curvature="0" />
    <path
       style="fill:none;stroke:#000000;stroke-width:0.665;stroke-linecap:round;stroke-linejoin:miter;stroke-opacity:1;stroke-miterlimit:4;stroke-dasharray:none"
       d="m 16.016741,25.463913 c 0.590275,-0.236564 1.249525,-0.530668 1.872461,-0.210931 0.704387,0.329898 1.518819,0.516297 2.270929,0.229419 0.596545,-0.07647 1.079481,-0.489228 1.675139,-0.541332 0.129145,0.0021 0.257003,0.03694 0.370823,0.09763"
       id="path989"
       inkscape:connector-curvature="0" />
    <path
       style="fill:none;stroke:#000000;stroke-width:0.66500002;stroke-linecap:butt;stroke-linejoin:miter;stroke-miterlimit:4;stroke-dasharray:none;stroke-opacity:1"
       d="m 14.433965,27.471913 c 0.0174,1.139423 -0.01539,2.279339 -0.04393,3.417674 0.05967,3.581742 0.426636,-0.10055 1.138153,0.378188 0.195614,0.184093 1.04996,1.367562 1.004834,0.78606 0.02791,-1.15772 -0.103721,-2.786407 0.02708,-3.920462"
       id="path996"
       inkscape:connector-curvature="0"
       sodipodi:nodetypes="ccccc" />
    <path
       sodipodi:nodetypes="ccccc"
       inkscape:connector-curvature="0"
       id="path1005"
       d="m 22.334747,27.471913 c -0.0174,1.139423 0.01539,2.279339 0.04393,3.417674 -0.05967,3.581742 -0.426636,-0.10055 -1.138153,0.378188 -0.195614,0.184093 -1.04996,1.367562 -1.004834,0.78606 -0.02791,-1.15772 0.103721,-2.786407 -0.02708,-3.920462"
       style="fill:none;stroke:#000000;stroke-width:0.66500002;stroke-linecap:butt;stroke-linejoin:miter;stroke-miterlimit:4;stroke-dasharray:none;stroke-opacity:1" />
    <path
       style="fill:none;stroke:#000000;stroke-width:0.66500002;stroke-linecap:butt;stroke-linejoin:miter;stroke-miterlimit:4;stroke-dasharray:none;stroke-opacity:1"
       d="m 26.015292,24.750483 c -0.0174,1.139423 0.03901,3.413268 0.06755,4.551603 -0.05967,3.581742 -0.426636,-0.10055 -1.138153,0.378188 -0.195614,0.184093 -1.04996,1.367562 -1.004834,0.78606 -0.02791,-1.15772 0.103721,-2.786407 -0.02708,-3.920462"
       id="path1007"
       inkscape:connector-curvature="0"
       sodipodi:nodetypes="ccccc" />
    <path
       sodipodi:nodetypes="ccccc"
       inkscape:connector-curvature="0"
       id="path1009"
       d="m 11.282584,24.750483 c 0.0174,1.139423 -0.03901,3.413268 -0.06755,4.551603 0.05967,3.581742 0.426636,-0.10055 1.138154,0.378188 0.195614,0.184093 1.04996,1.367562 1.004834,0.78606 0.02791,-1.15772 -0.103721,-2.786407 0.02708,-3.920462"
       style="fill:none;stroke:#000000;stroke-width:0.66500002;stroke-linecap:butt;stroke-linejoin:miter;stroke-miterlimit:4;stroke-dasharray:none;stroke-opacity:1" />
    <text
       xml:space="preserve"
       style="font-style:normal;font-weight:normal;font-size:5.19747972px;line-height:1.25;font-family:sans-serif;letter-spacing:0px;word-spacing:0px;fill:#000000;fill-opacity:1;stroke:none;stroke-width:0.12993699"
       x="15.455255"
       y="21.420406"
       id="text1013"
       transform="rotate(-32.415263)"><tspan
         sodipodi:role="line"
         id="tspan1011"
         x="15.455255"
         y="21.420406"
         style="stroke-width:0.12993699">oink</tspan></text>
  </g>
  <g
     inkscape:groupmode="layer"
     id="layer3"
     inkscape:label="drawing"
     style="display:inline">
    <circle
       style="fill:none;fill-opacity:1;stroke:#000000;stroke-width:0.76499999;stroke-linecap:round;stroke-linejoin:round;stroke-miterlimit:4;stroke-dasharray:none;stroke-opacity:1"
       id="path943"
       cx="18.544456"
       cy="18.494976"
       r="9.7565107" />
    <circle
       style="fill:none;fill-opacity:1;stroke:#000000;stroke-width:0.76499999;stroke-linecap:round;stroke-linejoin:round;stroke-miterlimit:4;stroke-dasharray:none;stroke-opacity:1"
       id="path945"
       cx="18.757069"
       cy="20.266741"
       r="2.7875743" />
    <ellipse
       style="fill:none;fill-opacity:1;stroke:#000000;stroke-width:0.76499999;stroke-linecap:round;stroke-linejoin:round;stroke-miterlimit:4;stroke-dasharray:none;stroke-opacity:1"
       id="path947"
       cx="17.764881"
       cy="20.408482"
       rx="0.37797621"
       ry="0.75595242" />
    <ellipse
       ry="0.75595242"
       rx="0.37797621"
       cy="20.408482"
       cx="19.749256"
       id="ellipse949"
       style="fill:none;fill-opacity:1;stroke:#000000;stroke-width:0.76499999;stroke-linecap:round;stroke-linejoin:round;stroke-miterlimit:4;stroke-dasharray:none;stroke-opacity:1" />
    <g
       id="g957">
      <ellipse
         ry="2.3859749"
         rx="1.3465402"
         cy="15.612909"
         cx="16.796316"
         id="path951"
         style="fill:none;fill-opacity:1;stroke:#000000;stroke-width:0.76499999;stroke-linecap:round;stroke-linejoin:round;stroke-miterlimit:4;stroke-dasharray:none;stroke-opacity:1" />
      <ellipse
         ry="0.5433408"
         rx="0.35435268"
         cy="16.888578"
         cx="17.174294"
         id="path953"
         style="fill:none;fill-opacity:1;stroke:#000000;stroke-width:0.76499999;stroke-linecap:round;stroke-linejoin:round;stroke-miterlimit:4;stroke-dasharray:none;stroke-opacity:1" />
    </g>
    <g
       id="g963"
       transform="translate(3.96875)">
      <ellipse
         style="fill:none;fill-opacity:1;stroke:#000000;stroke-width:0.76499999;stroke-linecap:round;stroke-linejoin:round;stroke-miterlimit:4;stroke-dasharray:none;stroke-opacity:1"
         id="ellipse959"
         cx="16.796316"
         cy="15.612909"
         rx="1.3465402"
         ry="2.3859749" />
      <ellipse
         style="fill:none;fill-opacity:1;stroke:#000000;stroke-width:0.76499999;stroke-linecap:round;stroke-linejoin:round;stroke-miterlimit:4;stroke-dasharray:none;stroke-opacity:1"
         id="ellipse961"
         cx="17.174294"
         cy="16.888578"
         rx="0.35435268"
         ry="0.5433408" />
    </g>
  </g>
</svg>
