<?xml version="1.0" encoding="UTF-8" standalone="no"?>
<!-- Created with Inkscape (http://www.inkscape.org/) -->

<svg
   xmlns:dc="http://purl.org/dc/elements/1.1/"
   xmlns:cc="http://creativecommons.org/ns#"
   xmlns:rdf="http://www.w3.org/1999/02/22-rdf-syntax-ns#"
   xmlns:svg="http://www.w3.org/2000/svg"
   xmlns="http://www.w3.org/2000/svg"
   xmlns:sodipodi="http://sodipodi.sourceforge.net/DTD/sodipodi-0.dtd"
   xmlns:inkscape="http://www.inkscape.org/namespaces/inkscape"
   width="36mm"
   height="36mm"
   viewBox="0 0 36 36"
   version="1.1"
   id="svg938"
   inkscape:version="0.92.3 (2405546, 2018-03-11)"
   sodipodi:docname="roo.svg">
  <defs
     id="defs932">
    <inkscape:path-effect
       effect="spiro"
       id="path-effect1658"
       is_visible="true" />
  </defs>
  <sodipodi:namedview
     id="base"
     pagecolor="#ffffff"
     bordercolor="#666666"
     borderopacity="1.0"
     inkscape:pageopacity="0.0"
     inkscape:pageshadow="2"
     inkscape:zoom="0.49497475"
     inkscape:cx="-814.53007"
     inkscape:cy="260.01266"
     inkscape:document-units="mm"
     inkscape:current-layer="layer1"
     showgrid="false"
     inkscape:window-width="1920"
     inkscape:window-height="1136"
     inkscape:window-x="1920"
     inkscape:window-y="27"
     inkscape:window-maximized="1" />
  <metadata
     id="metadata935">
    <rdf:RDF>
      <cc:Work
         rdf:about="">
        <dc:format>image/svg+xml</dc:format>
        <dc:type
           rdf:resource="http://purl.org/dc/dcmitype/StillImage" />
        <dc:title />
      </cc:Work>
    </rdf:RDF>
  </metadata>
  <g
     inkscape:label="grid"
     inkscape:groupmode="layer"
     id="layer1">
    <rect
       y="-0.5"
       x="0.5"
       height="36"
       width="36"
       id="rect852"
       style="color:#000000;display:inline;overflow:visible;visibility:visible;opacity:1;fill:none;fill-opacity:1;fill-rule:nonzero;stroke:#000000;stroke-width:1;stroke-linecap:round;stroke-linejoin:round;stroke-miterlimit:4;stroke-dasharray:none;stroke-dashoffset:0;stroke-opacity:1;marker:none;enable-background:accumulate" />
  </g>
  <g
     inkscape:groupmode="layer"
     id="layer3"
     inkscape:label="drawing">
    <g
       id="g2048"
       transform="translate(-51.058333,-110.47083)">
      <rect
         rx="1.2"
         transform="rotate(45)"
         y="32.048386"
         x="130.63075"
         height="18.122709"
         width="18.122709"
         id="rect2030"
         style="color:#000000;display:inline;overflow:visible;visibility:visible;opacity:1;fill:none;fill-opacity:1;fill-rule:nonzero;stroke:#000000;stroke-width:0.76499999;stroke-linecap:square;stroke-linejoin:round;stroke-miterlimit:4;stroke-dasharray:none;stroke-dashoffset:0;stroke-opacity:1;marker:none;enable-background:accumulate" />
      <path
         sodipodi:nodetypes="ccccccccccccczccc"
         inkscape:connector-curvature="0"
         id="path2034"
         d="m 75.383193,125.35182 c 0.762562,0.4761 2.193835,1.24377 0.497822,1.14529 -1.499299,-0.1061 -2.400264,2.13688 -3.464379,2.28246 -0.357243,0.16137 -1.455252,3.12377 -1.828955,1.2442 0.758711,0.98784 0.625966,-3.04416 -0.327263,-1.14132 -0.23697,1.41474 -0.285888,1.20125 0.155102,3.15123 0,0 3.722813,0.85218 4.078484,1.51215 -1.186472,-0.0899 -3.082246,-0.46417 -4.686345,-0.65013 0,0 -0.528458,-2.20387 -1.292707,-3.31309 -0.698777,-0.33618 -1.054611,-0.23953 -2.738075,-2.23358 -0.553501,-0.29199 -0.646741,0.18529 -2.104832,0.8805 -1.138123,0.48151 -3.091092,1.47216 -4.144449,0.0916 2.052798,1.3515 3.939072,-0.97779 5.033166,-2.17733 1.135174,-1.21363 1.82961,-2.52706 3.235853,-2.78118 1.406243,-0.25412 1.905829,-0.12494 3.484977,1.04333 2.611319,2.66856 1.537879,0.94803 3.451955,0.56785 z"
         style="opacity:1;vector-effect:none;fill:#000000;fill-opacity:1;fill-rule:evenodd;stroke:none;stroke-width:0.565;stroke-linecap:butt;stroke-linejoin:miter;stroke-miterlimit:4;stroke-dasharray:none;stroke-dashoffset:0;stroke-opacity:1" />
      <path
         sodipodi:nodetypes="cccccccccc"
         inkscape:connector-curvature="0"
         id="path2039"
         d="m 74.487132,125.40454 c -0.223908,-0.0811 -0.430329,-0.18639 -0.636829,-0.30181 -0.155898,-0.0957 -0.266069,-0.13648 -0.416008,-0.24132 -0.07527,-0.0543 -0.19656,-0.15913 -0.257583,-0.2281 -0.07724,-0.0693 -0.163381,-0.1672 -0.20231,-0.27026 0.0036,-0.0837 0.162184,0.0117 0.374538,0.0312 0.415664,0.14092 0.508126,0.17691 0.797782,0.3916 0.168405,0.14759 0.318296,0.33389 0.36416,0.55808 -0.01106,0.0202 0.02781,0.0863 -0.02375,0.0605 z"
         style="opacity:1;vector-effect:none;fill:#000000;fill-opacity:1;fill-rule:evenodd;stroke:none;stroke-width:0.56499994;stroke-linecap:round;stroke-linejoin:miter;stroke-miterlimit:4;stroke-dasharray:none;stroke-dashoffset:0;stroke-opacity:1" />
    </g>
  </g>
</svg>
