<?xml version="1.0" encoding="UTF-8" standalone="no"?>
<!-- Created with Inkscape (http://www.inkscape.org/) -->

<svg
   xmlns:dc="http://purl.org/dc/elements/1.1/"
   xmlns:cc="http://creativecommons.org/ns#"
   xmlns:rdf="http://www.w3.org/1999/02/22-rdf-syntax-ns#"
   xmlns:svg="http://www.w3.org/2000/svg"
   xmlns="http://www.w3.org/2000/svg"
   xmlns:sodipodi="http://sodipodi.sourceforge.net/DTD/sodipodi-0.dtd"
   xmlns:inkscape="http://www.inkscape.org/namespaces/inkscape"
   width="36mm"
   height="36mm"
   viewBox="0 0 36 36"
   version="1.1"
   id="svg938"
   inkscape:version="0.92.3 (2405546, 2018-03-11)"
   sodipodi:docname="sheep.svg">
  <defs
     id="defs932">
    <inkscape:path-effect
       effect="spiro"
       id="path-effect1658"
       is_visible="true" />
  </defs>
  <sodipodi:namedview
     id="base"
     pagecolor="#ffffff"
     bordercolor="#666666"
     borderopacity="1.0"
     inkscape:pageopacity="0.0"
     inkscape:pageshadow="2"
     inkscape:zoom="0.35"
     inkscape:cx="-754.66295"
     inkscape:cy="533.60062"
     inkscape:document-units="mm"
     inkscape:current-layer="layer1"
     showgrid="false"
     inkscape:window-width="1920"
     inkscape:window-height="1136"
     inkscape:window-x="1920"
     inkscape:window-y="27"
     inkscape:window-maximized="1" />
  <metadata
     id="metadata935">
    <rdf:RDF>
      <cc:Work
         rdf:about="">
        <dc:format>image/svg+xml</dc:format>
        <dc:type
           rdf:resource="http://purl.org/dc/dcmitype/StillImage" />
        <dc:title />
      </cc:Work>
    </rdf:RDF>
  </metadata>
  <g
     inkscape:label="grid"
     inkscape:groupmode="layer"
     id="layer1"
     style="display:inline">
    <rect
       y="-0.5"
       x="0.5"
       height="36"
       width="36"
       id="rect852"
       style="color:#000000;display:inline;overflow:visible;visibility:visible;opacity:1;fill:none;fill-opacity:1;fill-rule:nonzero;stroke:#000000;stroke-width:1;stroke-linecap:round;stroke-linejoin:round;stroke-miterlimit:4;stroke-dasharray:none;stroke-dashoffset:0;stroke-opacity:1;marker:none;enable-background:accumulate" />
  </g>
  <g
     inkscape:groupmode="layer"
     id="layer3"
     inkscape:label="drawing"
     style="display:inline">
    <g
       id="g5520"
       transform="translate(-47.861844,-108.72821)">
      <path
         sodipodi:nodetypes="ccccccccccccccccccccccc"
         inkscape:connector-curvature="0"
         id="path5464"
         d="m 67.657736,121.71354 c -0.140388,-1.36142 -2.563783,-1.56133 -2.852493,-0.22244 -0.412309,-0.8785 -2.077872,-0.17677 -1.870692,1.58869 -0.834345,-0.7523 -2.305985,-0.28085 -1.511907,1.59261 -2.548648,0.12405 -1.72518,1.84003 -0.543922,2.14363 -1.187446,0.69917 -1.038626,2.33944 0.499123,1.79223 -0.489023,0.58304 -2.094083,2.19315 0.736844,1.95633 -0.590473,0.8388 -1.805269,2.31732 0.906092,1.90494 0.453338,1.02023 1.757475,1.61207 2.389373,0.27617 0.184702,1.53732 2.274318,1.38072 2.354838,-0.031 0.815415,1.53753 2.094004,1.23891 2.468207,0.003 0.602096,1.02881 2.219876,1.17962 2.287102,0.10473 1.097731,0.47216 2.192843,0.42912 1.622995,-0.82027 1.838385,0.73556 2.519883,0.0745 1.2651,-1.54544 0.755266,0.1699 1.472443,-0.90022 0.766866,-1.67987 1.687298,0.10751 1.691451,-0.89275 0.304242,-2.13106 1.162069,-0.34456 1.817909,-1.05132 0.426844,-2.01482 1.313854,-0.33629 -0.279014,-1.94632 -1.09171,-1.91766 0.43835,-1.30058 -1.302893,-1.61316 -1.831747,-0.55811 -0.386942,-1.111 -0.966681,-1.27315 -2.017855,-0.38435 -1.214918,-2.18591 -1.615997,-0.76797 -2.02214,-0.10841 -0.444934,-1.06859 -1.548022,-1.31811 -2.28516,0.0514 z"
         style="fill:none;stroke:#000000;stroke-width:0.26458332px;stroke-linecap:butt;stroke-linejoin:miter;stroke-opacity:1" />
      <path
         sodipodi:nodetypes="ccccccc"
         inkscape:connector-curvature="0"
         id="path5468"
         d="m 67.87035,124.54836 c -0.879434,-0.11654 -1.774659,0.0217 -2.650297,-0.13741 -0.856644,0.27607 -0.626495,1.93663 -0.392618,2.50951 0.252177,0.8867 0.342723,1.44503 0.802553,2.26831 0.207189,0.7904 1.355526,0.79929 1.658116,-0.0617 0.60627,-0.77416 0.68806,-1.7833 0.858925,-2.7153 0.031,-0.60377 0.110599,-1.35341 -0.276679,-1.86339 z"
         style="fill:#000000;fill-opacity:1;stroke:#000000;stroke-width:0.26458332px;stroke-linecap:butt;stroke-linejoin:miter;stroke-opacity:1" />
      <path
         sodipodi:nodetypes="cccc"
         inkscape:connector-curvature="0"
         id="path5478"
         d="m 65.220053,124.41095 c -0.586308,-0.43261 -1.389711,0.89594 -2.050922,0.73235 -0.676889,0.57039 0.503506,0.81044 1.128417,0.54703 0.39314,-0.0567 0.793137,-0.23702 1.021481,-0.57479"
         style="fill:#000000;fill-opacity:1;stroke:#000000;stroke-width:0.26458332px;stroke-linecap:butt;stroke-linejoin:miter;stroke-opacity:1" />
      <path
         sodipodi:nodetypes="ccc"
         inkscape:connector-curvature="0"
         id="path5480"
         d="m 67.87035,124.54836 c 0.652587,-0.56314 1.15833,0.92614 1.383107,1.27213 -0.327865,0.75585 -0.689896,-0.46532 -1.146873,-0.49257"
         style="fill:#000000;fill-opacity:1;stroke:#000000;stroke-width:0.26458332px;stroke-linecap:butt;stroke-linejoin:miter;stroke-opacity:1" />
      <path
         sodipodi:nodetypes="cccc"
         inkscape:connector-curvature="0"
         id="path5492"
         d="m 64.411954,133.59809 c 0.416595,1.06131 0.06927,4.40108 0.624454,2.80409 0.593493,1.32424 0.149704,-1.7659 0.112905,-2.90889 -0.03087,-0.29582 0.004,-0.57183 0.260849,-0.74748"
         style="fill:#000000;fill-opacity:1;stroke:#000000;stroke-width:0.26458332px;stroke-linecap:butt;stroke-linejoin:miter;stroke-opacity:1" />
      <path
         sodipodi:nodetypes="ccc"
         inkscape:connector-curvature="0"
         id="path5494"
         d="m 72.520301,132.82243 c 0.328953,1.52817 0.564808,5.46064 0.910512,3.63414 0.433816,2.02718 -0.03421,-2.18909 -0.06533,-3.49329"
         style="fill:#000000;fill-opacity:1;stroke:#000000;stroke-width:0.26458332px;stroke-linecap:butt;stroke-linejoin:miter;stroke-opacity:1" />
      <path
         style="fill:#000000;fill-opacity:1;stroke:#000000;stroke-width:0.26458332px;stroke-linecap:butt;stroke-linejoin:miter;stroke-opacity:1"
         d="m 67.057786,133.59809 c 0.416595,1.06131 0.06927,4.40108 0.624454,2.80409 0.593493,1.32424 0.149704,-1.7659 0.112905,-2.90889 -0.03087,-0.29582 0.004,-0.57183 0.260849,-0.74748"
         id="path5508"
         inkscape:connector-curvature="0"
         sodipodi:nodetypes="cccc" />
      <path
         style="fill:#000000;fill-opacity:1;stroke:#000000;stroke-width:0.26458332px;stroke-linecap:butt;stroke-linejoin:miter;stroke-opacity:1"
         d="m 74.636969,132.29326 c 0.328953,1.52817 0.564808,5.46064 0.910512,3.63414 0.433816,2.02718 -0.03421,-2.18909 -0.06533,-3.49329"
         id="path5510"
         inkscape:connector-curvature="0"
         sodipodi:nodetypes="ccc" />
    </g>
    <text
       xml:space="preserve"
       style="font-style:normal;font-weight:normal;font-size:10.58333302px;line-height:1.25;font-family:sans-serif;letter-spacing:0px;word-spacing:0px;fill:#000000;fill-opacity:1;stroke:none;stroke-width:0.26458332"
       x="2.4600205"
       y="12.209088"
       id="text5524"
       transform="rotate(-18.608686)"><tspan
         sodipodi:role="line"
         id="tspan5522"
         x="2.4600205"
         y="12.209088"
         style="font-size:4.93888903px;stroke-width:0.26458332">Baaah</tspan></text>
  </g>
</svg>
