<?xml version="1.0" encoding="UTF-8" standalone="no"?>
<!-- Created with Inkscape (http://www.inkscape.org/) -->

<svg
   xmlns:dc="http://purl.org/dc/elements/1.1/"
   xmlns:cc="http://creativecommons.org/ns#"
   xmlns:rdf="http://www.w3.org/1999/02/22-rdf-syntax-ns#"
   xmlns:svg="http://www.w3.org/2000/svg"
   xmlns="http://www.w3.org/2000/svg"
   xmlns:sodipodi="http://sodipodi.sourceforge.net/DTD/sodipodi-0.dtd"
   xmlns:inkscape="http://www.inkscape.org/namespaces/inkscape"
   width="36mm"
   height="36mm"
   viewBox="0 0 36 36"
   version="1.1"
   id="svg938"
   inkscape:version="0.92.3 (2405546, 2018-03-11)"
   sodipodi:docname="toilet.svg">
  <defs
     id="defs932">
    <inkscape:perspective
       sodipodi:type="inkscape:persp3d"
       inkscape:vp_x="0 : 18 : 1"
       inkscape:vp_y="0 : 1000 : 0"
       inkscape:vp_z="36 : 18 : 1"
       inkscape:persp3d-origin="18 : 12 : 1"
       id="perspective1163" />
    <inkscape:path-effect
       effect="spiro"
       id="path-effect1658"
       is_visible="true" />
  </defs>
  <sodipodi:namedview
     id="base"
     pagecolor="#ffffff"
     bordercolor="#666666"
     borderopacity="1.0"
     inkscape:pageopacity="0.0"
     inkscape:pageshadow="2"
     inkscape:zoom="3.959798"
     inkscape:cx="20.618607"
     inkscape:cy="107.92862"
     inkscape:document-units="mm"
     inkscape:current-layer="layer3"
     showgrid="false"
     inkscape:window-width="1920"
     inkscape:window-height="1136"
     inkscape:window-x="1920"
     inkscape:window-y="27"
     inkscape:window-maximized="1"
     inkscape:measure-start="0,0"
     inkscape:measure-end="0,0" />
  <metadata
     id="metadata935">
    <rdf:RDF>
      <cc:Work
         rdf:about="">
        <dc:format>image/svg+xml</dc:format>
        <dc:type
           rdf:resource="http://purl.org/dc/dcmitype/StillImage" />
        <dc:title></dc:title>
      </cc:Work>
    </rdf:RDF>
  </metadata>
  <g
     inkscape:label="grid"
     inkscape:groupmode="layer"
     id="layer1"
     style="display:inline"
     sodipodi:insensitive="true">
    <rect
       y="-0.5"
       x="0.5"
       height="36"
       width="36"
       id="rect852"
       style="color:#000000;display:inline;overflow:visible;visibility:visible;opacity:1;fill:none;fill-opacity:1;fill-rule:nonzero;stroke:#000000;stroke-width:1;stroke-linecap:round;stroke-linejoin:round;stroke-miterlimit:4;stroke-dasharray:none;stroke-dashoffset:0;stroke-opacity:1;marker:none;enable-background:accumulate" />
  </g>
  <g
     inkscape:groupmode="layer"
     id="layer3"
     inkscape:label="drawing"
     style="display:inline">
    <g
       id="g5372"
       transform="matrix(0.85986801,0,0,1.0287233,10.786839,1.8910252)">
      <path
         sodipodi:nodetypes="ccccccccczcc"
         inkscape:connector-curvature="0"
         id="path2419"
         d="m 16.235683,9.0190263 c -4.555285,1.2212297 -4.823021,8.9227697 -3.063434,8.9183497 2.397952,0.13427 1.249235,-3.62954 2.540126,-5.15688 -0.142876,2.14595 0.03399,0.48961 -0.173896,2.86063 0.46479,2.86774 -0.976823,11.78937 1.398943,11.94593 3.254738,0.19136 0.47354,-8.3382 2.011411,-8.51374 1.25425,-0.005 -0.899719,8.79999 1.779515,8.5152 3.05131,0.30409 1.098209,-9.65272 1.504798,-12.04269 0.04224,-2.23209 -0.09864,-3.15169 -0.07046,-3.00843 2.530334,2.69438 -0.08341,5.52678 2.53114,5.50053 2.614553,-0.0262 0.770534,-8.6666996 -2.908399,-9.0754798 -0.961426,0.015499 -3.002457,0.0828 -5.549748,0.0566 z"
         style="display:inline;fill:#000000;stroke:#000000;stroke-width:0.26458332px;stroke-linecap:butt;stroke-linejoin:miter;stroke-opacity:1" />
      <ellipse
         ry="2.4705014"
         rx="2.1071818"
         cy="6.1977143"
         cx="18.979637"
         id="path2427"
         style="display:inline;fill:#000000;fill-opacity:1;stroke:#000000;stroke-width:0.5786531;stroke-linecap:round;stroke-linejoin:round;stroke-miterlimit:4;stroke-dasharray:none;stroke-opacity:1" />
    </g>
    <rect
       style="fill:#000000;fill-opacity:1;stroke:#000000;stroke-width:0.16298999;stroke-linecap:square;stroke-linejoin:round;stroke-miterlimit:4;stroke-dasharray:none;stroke-opacity:1"
       id="rect5374"
       width="1.5067493"
       height="27.298504"
       x="17.554468"
       y="4.2432394"
       ry="0.20033212" />
    <g
       transform="matrix(0.85986801,0,0,1.0287233,-7.1870367,1.8910252)"
       id="g5380">
      <path
         style="display:inline;fill:#000000;stroke:#000000;stroke-width:0.26458332px;stroke-linecap:butt;stroke-linejoin:miter;stroke-opacity:1"
         d="m 16.235683,9.0190263 c -4.555285,1.2212297 -4.823021,8.9227697 -3.063434,8.9183497 2.397952,0.13427 1.249235,-3.62954 2.540126,-5.15688 -0.142876,2.14595 0.03399,0.48961 -0.173896,2.86063 0.46479,2.86774 -0.976823,11.78937 1.398943,11.94593 3.254738,0.19136 0.47354,-8.3382 2.011411,-8.51374 1.25425,-0.005 -0.899719,8.79999 1.779515,8.5152 3.05131,0.30409 1.098209,-9.65272 1.504798,-12.04269 0.04224,-2.23209 -0.09864,-3.15169 -0.07046,-3.00843 2.530334,2.69438 -0.08341,5.52678 2.53114,5.50053 2.614553,-0.0262 0.770534,-8.6666996 -2.908399,-9.0754798 -0.961426,0.015499 -3.002457,0.0828 -5.549748,0.0566 z"
         id="path5376"
         inkscape:connector-curvature="0"
         sodipodi:nodetypes="ccccccccczcc" />
      <ellipse
         style="display:inline;fill:#000000;fill-opacity:1;stroke:#000000;stroke-width:0.5786531;stroke-linecap:round;stroke-linejoin:round;stroke-miterlimit:4;stroke-dasharray:none;stroke-opacity:1"
         id="ellipse5378"
         cx="18.979637"
         cy="6.1977143"
         rx="2.1071818"
         ry="2.4705014" />
    </g>
    <path
       style="fill:#000000;fill-opacity:1;stroke:#000000;stroke-width:0.27245155;stroke-linecap:square;stroke-linejoin:round;stroke-miterlimit:4;stroke-dasharray:none;stroke-opacity:1"
       d="m 6.3235319,15.038619 5.5464161,-0.250083 1.657754,11.520126 -8.7206371,-0.06682 z"
       id="rect5382"
       inkscape:connector-curvature="0"
       sodipodi:nodetypes="ccccc" />
  </g>
</svg>
