<?xml version="1.0" encoding="UTF-8" standalone="no"?>
<!-- Created with Inkscape (http://www.inkscape.org/) -->

<svg
   xmlns:dc="http://purl.org/dc/elements/1.1/"
   xmlns:cc="http://creativecommons.org/ns#"
   xmlns:rdf="http://www.w3.org/1999/02/22-rdf-syntax-ns#"
   xmlns:svg="http://www.w3.org/2000/svg"
   xmlns="http://www.w3.org/2000/svg"
   xmlns:sodipodi="http://sodipodi.sourceforge.net/DTD/sodipodi-0.dtd"
   xmlns:inkscape="http://www.inkscape.org/namespaces/inkscape"
   width="36mm"
   height="36mm"
   viewBox="0 0 36 36"
   version="1.1"
   id="svg938"
   inkscape:version="0.92.3 (2405546, 2018-03-11)"
   sodipodi:docname="waves.svg">
  <defs
     id="defs932">
    <inkscape:path-effect
       effect="spiro"
       id="path-effect1658"
       is_visible="true" />
  </defs>
  <sodipodi:namedview
     id="base"
     pagecolor="#ffffff"
     bordercolor="#666666"
     borderopacity="1.0"
     inkscape:pageopacity="0.0"
     inkscape:pageshadow="2"
     inkscape:zoom="0.49497475"
     inkscape:cx="168.45233"
     inkscape:cy="193.72023"
     inkscape:document-units="mm"
     inkscape:current-layer="layer1"
     showgrid="false"
     inkscape:window-width="1920"
     inkscape:window-height="1136"
     inkscape:window-x="1920"
     inkscape:window-y="27"
     inkscape:window-maximized="1" />
  <metadata
     id="metadata935">
    <rdf:RDF>
      <cc:Work
         rdf:about="">
        <dc:format>image/svg+xml</dc:format>
        <dc:type
           rdf:resource="http://purl.org/dc/dcmitype/StillImage" />
        <dc:title />
      </cc:Work>
    </rdf:RDF>
  </metadata>
  <g
     inkscape:label="grid"
     inkscape:groupmode="layer"
     id="layer1">
    <rect
       y="-0.5"
       x="0.5"
       height="36"
       width="36"
       id="rect852"
       style="color:#000000;display:inline;overflow:visible;visibility:visible;opacity:1;fill:none;fill-opacity:1;fill-rule:nonzero;stroke:#000000;stroke-width:1;stroke-linecap:round;stroke-linejoin:round;stroke-miterlimit:4;stroke-dasharray:none;stroke-dashoffset:0;stroke-opacity:1;marker:none;enable-background:accumulate" />
  </g>
  <g
     inkscape:groupmode="layer"
     id="layer3"
     inkscape:label="drawing"
     style="display:inline">
    <g
       id="g4778"
       transform="translate(-50.330729,-112.41741)">
      <path
         sodipodi:nodetypes="czzzzzc"
         inkscape:connector-curvature="0"
         id="path4733"
         d="m 53.620947,123.40844 c 0.989338,-1.68193 2.998594,-0.91949 4.488257,-0.0674 1.489663,0.85209 3.177209,-0.19231 4.941485,-0.4953 1.764276,-0.30299 3.535856,0.27014 5.434285,1.38192 1.898429,1.11178 4.01474,-1.36835 6.023888,-1.87746 2.009148,-0.50911 3.874342,1.44417 5.347557,1.05503 1.473215,-0.38914 1.840138,-0.18253 2.696469,0.1702"
         style="fill:none;stroke:#000000;stroke-width:0.96499997;stroke-linecap:butt;stroke-linejoin:miter;stroke-miterlimit:4;stroke-dasharray:none;stroke-opacity:1" />
      <path
         sodipodi:nodetypes="czzzzc"
         inkscape:connector-curvature="0"
         id="path4735"
         d="m 54.255714,127.38408 c 2.155451,-2.17836 6.058847,-1.47284 8.103621,-0.36534 2.044774,1.1075 3.488923,0.0943 5.233941,-0.12397 1.745018,-0.2183 3.073252,0.60121 4.995378,0.58095 1.922126,-0.0203 4.899435,-1.18081 6.584137,-0.43858 1.684702,0.74223 2.653403,1.73645 3.847804,0.58088"
         style="fill:none;stroke:#000000;stroke-width:0.96499997;stroke-linecap:butt;stroke-linejoin:miter;stroke-miterlimit:4;stroke-dasharray:none;stroke-opacity:1" />
      <path
         sodipodi:nodetypes="czzzc"
         inkscape:connector-curvature="0"
         id="path4737"
         d="m 54.957297,131.05903 c 1.428412,-2.14776 3.226997,-2.17447 6.533166,-0.99505 3.306169,1.17942 3.546783,1.6134 7.089905,0.45687 3.543122,-1.15654 5.917869,0.96842 10.028709,0.80342 4.11084,-0.16499 4.11084,-0.16499 4.11084,-0.16499"
         style="fill:none;stroke:#000000;stroke-width:0.96499997;stroke-linecap:butt;stroke-linejoin:miter;stroke-miterlimit:4;stroke-dasharray:none;stroke-opacity:1" />
      <path
         sodipodi:nodetypes="czzzc"
         inkscape:connector-curvature="0"
         id="path4739"
         d="m 54.62321,135.36875 c 1.275247,-1.99766 4.334108,-1.39372 7.127776,-0.58482 2.793668,0.8089 6.323985,-1.09168 9.163,-1.09668 2.839015,-0.004 5.742555,1.15747 7.542351,0.7248 1.799796,-0.43267 2.969761,-0.3978 4.785671,1.23982"
         style="fill:none;stroke:#000000;stroke-width:0.96499997;stroke-linecap:butt;stroke-linejoin:miter;stroke-miterlimit:4;stroke-dasharray:none;stroke-opacity:1" />
      <path
         sodipodi:nodetypes="czzzzc"
         inkscape:connector-curvature="0"
         id="path4741"
         d="m 55.157748,139.3778 c 1.276233,-2.596 5.36826,-2.43197 7.100675,-1.17265 1.732415,1.25932 2.85444,2.07913 4.698881,1.08837 1.844441,-0.99076 3.371055,-1.82213 5.658577,-1.05641 2.287522,0.76572 5.274817,2.04897 7.089146,1.03627 1.814329,-1.0127 2.903099,-3.08174 4.217609,-0.99789"
         style="fill:none;stroke:#000000;stroke-width:0.96499997;stroke-linecap:butt;stroke-linejoin:miter;stroke-miterlimit:4;stroke-dasharray:none;stroke-opacity:1" />
    </g>
  </g>
</svg>
