<?xml version="1.0" encoding="UTF-8" standalone="no"?>
<!-- Created with Inkscape (http://www.inkscape.org/) -->

<svg
   xmlns:dc="http://purl.org/dc/elements/1.1/"
   xmlns:cc="http://creativecommons.org/ns#"
   xmlns:rdf="http://www.w3.org/1999/02/22-rdf-syntax-ns#"
   xmlns:svg="http://www.w3.org/2000/svg"
   xmlns="http://www.w3.org/2000/svg"
   xmlns:sodipodi="http://sodipodi.sourceforge.net/DTD/sodipodi-0.dtd"
   xmlns:inkscape="http://www.inkscape.org/namespaces/inkscape"
   width="36mm"
   height="36mm"
   viewBox="0 0 36 36"
   version="1.1"
   id="svg938"
   inkscape:version="0.92.3 (2405546, 2018-03-11)"
   sodipodi:docname="whale.svg">
  <defs
     id="defs932">
    <inkscape:path-effect
       effect="spiro"
       id="path-effect1658"
       is_visible="true" />
  </defs>
  <sodipodi:namedview
     id="base"
     pagecolor="#ffffff"
     bordercolor="#666666"
     borderopacity="1.0"
     inkscape:pageopacity="0.0"
     inkscape:pageshadow="2"
     inkscape:zoom="3.959798"
     inkscape:cx="14.034136"
     inkscape:cy="110.53306"
     inkscape:document-units="mm"
     inkscape:current-layer="layer1"
     showgrid="false"
     inkscape:window-width="1920"
     inkscape:window-height="1136"
     inkscape:window-x="1920"
     inkscape:window-y="27"
     inkscape:window-maximized="1" />
  <metadata
     id="metadata935">
    <rdf:RDF>
      <cc:Work
         rdf:about="">
        <dc:format>image/svg+xml</dc:format>
        <dc:type
           rdf:resource="http://purl.org/dc/dcmitype/StillImage" />
        <dc:title />
      </cc:Work>
    </rdf:RDF>
  </metadata>
  <g
     inkscape:label="grid"
     inkscape:groupmode="layer"
     id="layer1">
    <path
       style="fill:#000000;fill-opacity:1;stroke:#000000;stroke-width:0.19649374px;stroke-linecap:butt;stroke-linejoin:miter;stroke-opacity:1"
       d="m 14.439209,27.790156 c -0.866272,-1.864301 0.639036,-6.483685 0.756538,-8.34149 -1.80988,-0.698156 -5.290878,-4.283556 -5.128768,-7.335245 0.138706,-0.58125 -0.397753,-3.0061953 0.45307,-1.279952 1.273739,1.380653 2.647691,2.115236 4.170479,2.90974 1.522788,0.794504 3.079129,2.218104 3.580015,3.008175 1.935633,-0.591665 3.863566,0.534622 5.320163,1.355944 0.942047,0.531186 2.963379,1.333307 4.554869,1.027837 -2.057197,1.590789 -6.25046,1.935714 -8.676663,1.355106 -2.374207,2.741021 -2.064264,6.441419 0.150603,9.153224"
       id="path877"
       inkscape:connector-curvature="0"
       sodipodi:nodetypes="cccczcsccc" />
    <rect
       y="-0.5"
       x="0.5"
       height="36"
       width="36"
       id="rect852"
       style="color:#000000;display:inline;overflow:visible;visibility:visible;opacity:1;fill:none;fill-opacity:1;fill-rule:nonzero;stroke:#000000;stroke-width:1;stroke-linecap:round;stroke-linejoin:round;stroke-miterlimit:4;stroke-dasharray:none;stroke-dashoffset:0;stroke-opacity:1;marker:none;enable-background:accumulate" />
    <path
       style="fill:none;stroke:#000000;stroke-width:0.26458332px;stroke-linecap:butt;stroke-linejoin:miter;stroke-opacity:1"
       d="m 2.9178514,28.837784 c 2.3965098,-3.253112 6.8616268,-2.407365 10.3652206,-2.48321 4.014379,0.285891 7.842297,3.629002 11.917359,1.878635 2.437534,-1.498898 5.474738,-2.930392 8.238993,-1.25692 0.536653,0.258242 1.051634,0.558549 1.559166,0.869287"
       id="path858"
       inkscape:connector-curvature="0" />
    <path
       style="fill:none;stroke:#000000;stroke-width:0.26458332px;stroke-linecap:butt;stroke-linejoin:miter;stroke-opacity:1"
       d="m 6.2366072,29.574405 c 2.1274888,-2.179347 5.4214938,-1.810143 8.2026018,-1.784249 1.833936,0.294059 3.324491,1.518302 5.180306,1.853339 2.315535,0.635682 9.039046,0.670876 10.581409,-1.294706"
       id="path891"
       inkscape:connector-curvature="0"
       sodipodi:nodetypes="cccc" />
    <path
       inkscape:connector-curvature="0"
       id="path897"
       d="m 2.851034,32.913644 c 2.3965098,-3.253112 6.8616268,-2.407365 10.365221,-2.48321 4.014379,0.285891 7.842297,3.629002 11.917359,1.878635 2.437534,-1.498898 5.474738,-2.930392 8.238993,-1.25692 0.536653,0.258242 1.051634,0.558549 1.559166,0.869287"
       style="fill:none;stroke:#000000;stroke-width:0.26458332px;stroke-linecap:butt;stroke-linejoin:miter;stroke-opacity:1" />
  </g>
  <g
     inkscape:groupmode="layer"
     id="layer3"
     inkscape:label="drawing"
     style="display:inline" />
</svg>
