<?xml version="1.0" encoding="UTF-8" standalone="no"?>
<!-- Created with Inkscape (http://www.inkscape.org/) -->

<svg
   xmlns:dc="http://purl.org/dc/elements/1.1/"
   xmlns:cc="http://creativecommons.org/ns#"
   xmlns:rdf="http://www.w3.org/1999/02/22-rdf-syntax-ns#"
   xmlns:svg="http://www.w3.org/2000/svg"
   xmlns="http://www.w3.org/2000/svg"
   xmlns:sodipodi="http://sodipodi.sourceforge.net/DTD/sodipodi-0.dtd"
   xmlns:inkscape="http://www.inkscape.org/namespaces/inkscape"
   width="36mm"
   height="36mm"
   viewBox="0 0 36 36"
   version="1.1"
   id="svg938"
   inkscape:version="0.92.3 (2405546, 2018-03-11)"
   sodipodi:docname="worker.svg">
  <defs
     id="defs932">
    <inkscape:path-effect
       effect="spiro"
       id="path-effect1658"
       is_visible="true" />
  </defs>
  <sodipodi:namedview
     id="base"
     pagecolor="#ffffff"
     bordercolor="#666666"
     borderopacity="1.0"
     inkscape:pageopacity="0.0"
     inkscape:pageshadow="2"
     inkscape:zoom="0.24748737"
     inkscape:cx="-260.10727"
     inkscape:cy="1154.6149"
     inkscape:document-units="mm"
     inkscape:current-layer="layer1"
     showgrid="false"
     inkscape:window-width="1920"
     inkscape:window-height="1136"
     inkscape:window-x="1920"
     inkscape:window-y="27"
     inkscape:window-maximized="1" />
  <metadata
     id="metadata935">
    <rdf:RDF>
      <cc:Work
         rdf:about="">
        <dc:format>image/svg+xml</dc:format>
        <dc:type
           rdf:resource="http://purl.org/dc/dcmitype/StillImage" />
        <dc:title />
      </cc:Work>
    </rdf:RDF>
  </metadata>
  <g
     inkscape:label="grid"
     inkscape:groupmode="layer"
     id="layer1"
     style="display:inline">
    <rect
       y="-0.5"
       x="0.5"
       height="36"
       width="36"
       id="rect852"
       style="color:#000000;display:inline;overflow:visible;visibility:visible;opacity:1;fill:none;fill-opacity:1;fill-rule:nonzero;stroke:#000000;stroke-width:1;stroke-linecap:round;stroke-linejoin:round;stroke-miterlimit:4;stroke-dasharray:none;stroke-dashoffset:0;stroke-opacity:1;marker:none;enable-background:accumulate" />
  </g>
  <g
     inkscape:groupmode="layer"
     id="layer3"
     inkscape:label="drawing"
     style="display:inline">
    <path
       style="fill:#000000;stroke:#000000;stroke-width:0.26458332px;stroke-linecap:butt;stroke-linejoin:miter;stroke-opacity:1"
       d="m 15.643635,11.31678 c -4.555285,1.22123 -4.823021,8.92277 -3.063434,8.91835 2.397952,0.13427 1.249235,-3.62954 2.540126,-5.15688 -0.142876,2.14595 0.03399,0.48961 -0.173896,2.86063 0.46479,2.86774 -0.976823,11.78937 1.398943,11.94593 3.254738,0.19136 0.47354,-8.3382 2.011411,-8.51374 1.25425,-0.005 -0.899719,8.79999 1.779515,8.5152 3.05131,0.30409 1.098209,-9.65272 1.504798,-12.04269 0.04224,-2.23209 -0.09864,-3.15169 -0.07046,-3.00843 2.530334,2.69438 -0.08341,5.52678 2.53114,5.50053 2.614553,-0.0262 0.770534,-8.6667 -2.908399,-9.07548 -0.961426,0.0155 -3.002457,0.0828 -5.549748,0.0566 z"
       id="path2419"
       inkscape:connector-curvature="0"
       sodipodi:nodetypes="ccccccccczcc" />
    <ellipse
       style="fill:#000000;fill-opacity:1;stroke:#000000;stroke-width:0.5786531;stroke-linecap:round;stroke-linejoin:round;stroke-miterlimit:4;stroke-dasharray:none;stroke-opacity:1"
       id="path2427"
       cx="18.387589"
       cy="8.4954681"
       rx="2.1071818"
       ry="2.4705014" />
    <g
       id="g2478"
       transform="translate(-50.023624,-110.38579)">
      <path
         transform="scale(0.26458333)"
         id="path2445"
         d="m 256.67595,436.46223 v 2.00001 a 10.038391,8.1443545 0 0 0 -8.24157,8.01281 10.038391,8.1443545 0 0 0 0.24288,1.7807 v 0 l 19.56176,0.10286 a 10.038391,8.1443545 0 0 0 0.27215,-1.88356 v 0 a 10.038391,8.1443545 0 0 0 -8.52456,-8.0512 v -2.00017"
         style="fill:#ffffff;fill-opacity:1;stroke:#000000;stroke-width:0.37795275;stroke-linecap:round;stroke-linejoin:round;stroke-miterlimit:4;stroke-dasharray:none;stroke-opacity:1"
         inkscape:connector-curvature="0" />
      <path
         inkscape:connector-curvature="0"
         id="path2436"
         d="m 67.912178,115.48063 a 2.6559909,2.1548604 0 0 1 0.475411,-0.0348 2.6559909,2.1548604 0 0 1 0.400534,0.0246"
         style="fill:none;fill-opacity:1;stroke:#000000;stroke-width:0.1;stroke-linecap:round;stroke-linejoin:round;stroke-miterlimit:4;stroke-dasharray:none;stroke-opacity:1" />
      <path
         inkscape:connector-curvature="0"
         id="path2449"
         d="m 67.208891,116.18564 0.466564,0.88588"
         style="fill:none;stroke:#000000;stroke-width:0.26458332px;stroke-linecap:butt;stroke-linejoin:miter;stroke-opacity:1" />
      <rect
         y="118.08246"
         x="65.218216"
         height="0.58850855"
         width="6.2773061"
         id="rect2469"
         style="fill:#ffffff;fill-opacity:1;stroke:#000000;stroke-width:0.10411932;stroke-linecap:round;stroke-linejoin:round;stroke-miterlimit:4;stroke-dasharray:none;stroke-opacity:1" />
      <path
         style="fill:none;stroke:#000000;stroke-width:0.26458332px;stroke-linecap:butt;stroke-linejoin:miter;stroke-opacity:1"
         d="m 69.421647,116.16894 -0.466564,0.88588"
         id="path2471"
         inkscape:connector-curvature="0" />
    </g>
  </g>
</svg>
