<?xml version="1.0" encoding="UTF-8" standalone="no"?>
<!-- Created with Inkscape (http://www.inkscape.org/) -->

<svg
   xmlns:dc="http://purl.org/dc/elements/1.1/"
   xmlns:cc="http://creativecommons.org/ns#"
   xmlns:rdf="http://www.w3.org/1999/02/22-rdf-syntax-ns#"
   xmlns:svg="http://www.w3.org/2000/svg"
   xmlns="http://www.w3.org/2000/svg"
   xmlns:sodipodi="http://sodipodi.sourceforge.net/DTD/sodipodi-0.dtd"
   xmlns:inkscape="http://www.inkscape.org/namespaces/inkscape"
   width="210mm"
   height="297mm"
   viewBox="0 0 210 297"
   version="1.1"
   id="svg8"
   sodipodi:docname="frontpage.svg"
   inkscape:version="0.92.3 (2405546, 2018-03-11)">
  <defs
     id="defs2" />
  <sodipodi:namedview
     id="base"
     pagecolor="#ffffff"
     bordercolor="#666666"
     borderopacity="1.0"
     inkscape:pageopacity="0.0"
     inkscape:pageshadow="2"
     inkscape:zoom="0.7"
     inkscape:cx="292.78739"
     inkscape:cy="515.74839"
     inkscape:document-units="mm"
     inkscape:current-layer="layer1"
     showgrid="false"
     inkscape:window-width="1920"
     inkscape:window-height="1136"
     inkscape:window-x="1920"
     inkscape:window-y="27"
     inkscape:window-maximized="1" />
  <metadata
     id="metadata5">
    <rdf:RDF>
      <cc:Work
         rdf:about="">
        <dc:format>image/svg+xml</dc:format>
        <dc:type
           rdf:resource="http://purl.org/dc/dcmitype/StillImage" />
        <dc:title></dc:title>
      </cc:Work>
    </rdf:RDF>
  </metadata>
  <g
     inkscape:label="Layer 1"
     inkscape:groupmode="layer"
     id="layer1">
    <text
       xml:space="preserve"
       style="font-style:normal;font-variant:normal;font-weight:600;font-stretch:normal;font-size:22.57777786px;line-height:1.25;font-family:FreeSans;-inkscape-font-specification:'FreeSans Semi-Bold';letter-spacing:0px;word-spacing:0px;fill:#000000;fill-opacity:1;stroke:none;stroke-width:0.26458332"
       x="16.457304"
       y="43.025505"
       id="text12"><tspan
         sodipodi:role="line"
         id="tspan10"
         x="16.457304"
         y="43.025505"
         style="font-style:normal;font-variant:normal;font-weight:600;font-stretch:normal;font-size:22.57777786px;font-family:FreeSans;-inkscape-font-specification:'FreeSans Semi-Bold';stroke-width:0.26458332">Road Trip Bingo</tspan></text>
    <text
       xml:space="preserve"
       style="font-style:normal;font-weight:normal;font-size:10.58333302px;line-height:1.25;font-family:sans-serif;letter-spacing:0px;word-spacing:0px;fill:#000000;fill-opacity:1;stroke:none;stroke-width:0.26458332"
       x="17.876938"
       y="64.334686"
       id="text744"><tspan
         sodipodi:role="line"
         id="tspan742"
         x="17.876938"
         y="64.334686"
         style="font-weight:bold;stroke-width:0.26458332">Rules:</tspan></text>
    <g
       id="g1858"
       transform="matrix(0.71701681,0,0,0.71701681,31.407462,19.345717)">
      <g
         transform="translate(-4.1197496,-61.314079)"
         id="g740">
        <flowRoot
           xml:space="preserve"
           id="flowRoot347"
           style="font-style:normal;font-weight:normal;font-size:40px;line-height:1.25;font-family:sans-serif;letter-spacing:0px;word-spacing:0px;fill:#000000;fill-opacity:1;stroke:none"
           transform="matrix(0.26458333,0,0,0.26458333,13.229842,14.432554)"><flowRegion
             id="flowRegion349"><rect
               id="rect351"
               width="549.52301"
               height="350.52292"
               x="92.934036"
               y="567.94592" /></flowRegion><flowPara
             id="flowPara357">if you have a</flowPara><flowPara
             id="flowPara643"> </flowPara><flowPara
             id="flowPara363" /><flowPara
             id="flowPara365">and you see a</flowPara><flowPara
             id="flowPara645"> </flowPara><flowPara
             id="flowPara367" /><flowPara
             id="flowPara369">mark it off!</flowPara></flowRoot>        <g
           id="g657"
           transform="translate(-1.7372519,-12.561668)">
          <rect
             style="color:#000000;display:inline;overflow:visible;visibility:visible;opacity:1;fill:none;fill-opacity:1;fill-rule:nonzero;stroke:#000000;stroke-width:1;stroke-linecap:round;stroke-linejoin:round;stroke-miterlimit:4;stroke-dasharray:none;stroke-dashoffset:0;stroke-opacity:1;marker:none;enable-background:accumulate"
             id="rect852"
             width="36"
             height="36"
             x="126.57589"
             y="165.04019" />
          <g
             id="g623">
            <path
               style="display:inline;fill:none;stroke:#000000;stroke-width:0.96499997;stroke-linecap:round;stroke-linejoin:miter;stroke-miterlimit:4;stroke-dasharray:none;stroke-opacity:1"
               d="m 129.9307,188.97348 h 12.49485"
               id="path3881"
               inkscape:connector-curvature="0" />
            <rect
               style="display:inline;stroke-width:0.96499997;stroke-linecap:round;stroke-miterlimit:4;stroke-dasharray:none"
               id="rect4688"
               width="27.461943"
               height="14.031651"
               x="132.33614"
               y="175.5432"
               rx="4" />
            <rect
               style="display:inline;fill:#ffffff;stroke-width:0.96499997;stroke-linecap:round;stroke-miterlimit:4;stroke-dasharray:none"
               id="rect4692"
               width="9.588295"
               height="2.9733737"
               x="146.00029"
               y="179.61906"
               rx="0.62499875" />
            <rect
               rx="0.45078307"
               y="179.61906"
               x="135.17587"
               height="2.9733737"
               width="6.9155989"
               id="rect4694"
               style="display:inline;fill:#ffffff;stroke-width:0.81954259;stroke-linecap:round;stroke-miterlimit:4;stroke-dasharray:none" />
            <circle
               style="display:inline;fill:#ffffff;stroke-width:0.96499997;stroke-linecap:round;stroke-miterlimit:4;stroke-dasharray:none"
               id="path4696"
               cx="146.13391"
               cy="189.60826"
               r="2.7395127" />
            <circle
               r="2.7395127"
               cy="189.60826"
               cx="150.00816"
               id="circle4702"
               style="display:inline;fill:#ffffff;stroke-width:0.96499997;stroke-linecap:round;stroke-miterlimit:4;stroke-dasharray:none" />
            <circle
               style="display:inline;fill:#000000;stroke-width:0.96499997;stroke-linecap:round;stroke-miterlimit:4;stroke-dasharray:none"
               id="path4700"
               cx="146.1172"
               cy="189.42451"
               r="1.787365" />
            <circle
               r="1.787365"
               cy="189.42451"
               cx="149.99146"
               id="circle4704"
               style="display:inline;fill:#000000;stroke-width:0.96499997;stroke-linecap:round;stroke-miterlimit:4;stroke-dasharray:none" />
          </g>
        </g>
        <g
           id="g641"
           transform="translate(-2.0235158,29.220437)">
          <path
             style="display:inline;fill:none;stroke:#000000;stroke-width:0.96499997;stroke-linecap:round;stroke-linejoin:miter;stroke-miterlimit:4;stroke-dasharray:none;stroke-opacity:1"
             d="m 129.9307,188.97348 h 12.49485"
             id="path625"
             inkscape:connector-curvature="0" />
          <rect
             style="display:inline;stroke-width:0.96499997;stroke-linecap:round;stroke-miterlimit:4;stroke-dasharray:none"
             id="rect627"
             width="27.461943"
             height="14.031651"
             x="132.33614"
             y="175.5432"
             rx="4" />
          <rect
             style="display:inline;fill:#ffffff;stroke-width:0.96499997;stroke-linecap:round;stroke-miterlimit:4;stroke-dasharray:none"
             id="rect629"
             width="9.588295"
             height="2.9733737"
             x="146.00029"
             y="179.61906"
             rx="0.62499875" />
          <rect
             rx="0.45078307"
             y="179.61906"
             x="135.17587"
             height="2.9733737"
             width="6.9155989"
             id="rect631"
             style="display:inline;fill:#ffffff;stroke-width:0.81954259;stroke-linecap:round;stroke-miterlimit:4;stroke-dasharray:none" />
          <circle
             style="display:inline;fill:#ffffff;stroke-width:0.96499997;stroke-linecap:round;stroke-miterlimit:4;stroke-dasharray:none"
             id="circle633"
             cx="146.13391"
             cy="189.60826"
             r="2.7395127" />
          <circle
             r="2.7395127"
             cy="189.60826"
             cx="150.00816"
             id="circle635"
             style="display:inline;fill:#ffffff;stroke-width:0.96499997;stroke-linecap:round;stroke-miterlimit:4;stroke-dasharray:none" />
          <circle
             style="display:inline;fill:#000000;stroke-width:0.96499997;stroke-linecap:round;stroke-miterlimit:4;stroke-dasharray:none"
             id="circle637"
             cx="146.1172"
             cy="189.42451"
             r="1.787365" />
          <circle
             r="1.787365"
             cy="189.42451"
             cx="149.99146"
             id="circle639"
             style="display:inline;fill:#000000;stroke-width:0.96499997;stroke-linecap:round;stroke-miterlimit:4;stroke-dasharray:none" />
        </g>
        <g
           transform="translate(-1.7372519,70.291886)"
           id="g679">
          <rect
             y="165.04019"
             x="126.57589"
             height="36"
             width="36"
             id="rect659"
             style="color:#000000;display:inline;overflow:visible;visibility:visible;opacity:1;fill:none;fill-opacity:1;fill-rule:nonzero;stroke:#000000;stroke-width:1;stroke-linecap:round;stroke-linejoin:round;stroke-miterlimit:4;stroke-dasharray:none;stroke-dashoffset:0;stroke-opacity:1;marker:none;enable-background:accumulate" />
          <g
             id="g677">
            <path
               inkscape:connector-curvature="0"
               id="path661"
               d="m 129.9307,188.97348 h 12.49485"
               style="display:inline;fill:none;stroke:#000000;stroke-width:0.96499997;stroke-linecap:round;stroke-linejoin:miter;stroke-miterlimit:4;stroke-dasharray:none;stroke-opacity:1" />
            <rect
               rx="4"
               y="175.5432"
               x="132.33614"
               height="14.031651"
               width="27.461943"
               id="rect663"
               style="display:inline;stroke-width:0.96499997;stroke-linecap:round;stroke-miterlimit:4;stroke-dasharray:none" />
            <rect
               rx="0.62499875"
               y="179.61906"
               x="146.00029"
               height="2.9733737"
               width="9.588295"
               id="rect665"
               style="display:inline;fill:#ffffff;stroke-width:0.96499997;stroke-linecap:round;stroke-miterlimit:4;stroke-dasharray:none" />
            <rect
               style="display:inline;fill:#ffffff;stroke-width:0.81954259;stroke-linecap:round;stroke-miterlimit:4;stroke-dasharray:none"
               id="rect667"
               width="6.9155989"
               height="2.9733737"
               x="135.17587"
               y="179.61906"
               rx="0.45078307" />
            <circle
               r="2.7395127"
               cy="189.60826"
               cx="146.13391"
               id="circle669"
               style="display:inline;fill:#ffffff;stroke-width:0.96499997;stroke-linecap:round;stroke-miterlimit:4;stroke-dasharray:none" />
            <circle
               style="display:inline;fill:#ffffff;stroke-width:0.96499997;stroke-linecap:round;stroke-miterlimit:4;stroke-dasharray:none"
               id="circle671"
               cx="150.00816"
               cy="189.60826"
               r="2.7395127" />
            <circle
               r="1.787365"
               cy="189.42451"
               cx="146.1172"
               id="circle673"
               style="display:inline;fill:#000000;stroke-width:0.96499997;stroke-linecap:round;stroke-miterlimit:4;stroke-dasharray:none" />
            <circle
               style="display:inline;fill:#000000;stroke-width:0.96499997;stroke-linecap:round;stroke-miterlimit:4;stroke-dasharray:none"
               id="circle675"
               cx="149.99146"
               cy="189.42451"
               r="1.787365" />
          </g>
        </g>
        <path
           style="fill:#000000;fill-opacity:1;stroke:#000000;stroke-width:0.82568711;stroke-linecap:round;stroke-linejoin:round;stroke-miterlimit:4;stroke-dasharray:none;stroke-opacity:1"
           id="path685"
           d="m 117.43964,237.37169 c 0.48604,0.0883 0.97841,0.1415 1.45811,0.26508 1.72287,0.44386 3.58606,1.1683 5.22121,1.83308 2.78734,1.13322 5.13747,2.18926 7.86533,3.52971 1.39141,0.68373 2.76278,1.41612 4.14416,2.12419 1.46846,0.96547 2.97513,1.86343 4.40539,2.8964 2.97001,2.145 6.15506,4.90618 8.89631,7.37938 3.89552,3.51461 7.6052,7.23995 11.28234,11.02602 2.9691,3.24471 6.14495,6.43802 8.21312,10.50102 0.0911,0.23612 0.18219,0.47227 0.27329,0.7084 0,0 -2.75615,1.69608 -2.75615,1.69608 v 0 c -0.075,-0.23183 -0.14985,-0.46367 -0.22478,-0.6955 -0.13069,-0.2981 -0.24859,-0.60341 -0.39204,-0.89425 -1.8444,-3.73941 -4.69694,-6.75039 -7.29485,-9.83256 -1.04124,-1.12464 -2.06517,-2.26916 -3.12373,-3.37391 -2.79052,-2.91238 -4.9755,-5.04836 -7.97641,-7.74679 -2.76531,-2.48658 -5.92578,-5.18801 -8.94563,-7.30086 -1.44912,-1.01387 -2.97905,-1.87959 -4.46857,-2.81941 -1.38341,-0.70236 -2.75369,-1.43718 -4.15022,-2.10713 -2.86024,-1.37213 -5.08237,-2.31116 -8.02099,-3.38531 -1.68971,-0.61766 -3.63205,-1.27513 -5.41542,-1.612 -0.50947,-0.0962 -1.02925,-0.10614 -1.54388,-0.15914 0,0 2.55341,-2.0325 2.55341,-2.0325 z"
           inkscape:connector-curvature="0" />
        <path
           inkscape:connector-curvature="0"
           d="m 169.21983,236.52654 c -0.47672,0.0893 -0.95966,0.14294 -1.43017,0.26777 -1.68986,0.44835 -3.51736,1.18012 -5.12118,1.85162 -2.73394,1.14467 -5.03904,2.21139 -7.71464,3.56538 -1.36475,0.69064 -2.70985,1.43045 -4.06476,2.14567 -1.44032,0.97522 -2.91813,1.88227 -4.32099,2.92568 -2.91311,2.16668 -6.03714,4.95579 -8.72585,7.45399 -3.8209,3.55013 -7.4595,7.31315 -11.0662,11.13747 -2.91221,3.27753 -6.02722,6.50312 -8.05577,10.6072 -0.0894,0.23851 -0.1787,0.47703 -0.26804,0.71556 0,0 2.70334,1.71322 2.70334,1.71322 v 0 c 0.0735,-0.23417 0.14699,-0.46835 0.22047,-0.70252 0.12819,-0.30112 0.24384,-0.60952 0.38452,-0.90331 1.80908,-3.7772 4.60695,-6.81863 7.1551,-9.93195 1.0213,-1.13602 2.0256,-2.2921 3.06388,-3.40802 2.73706,-2.94182 4.88018,-5.0994 7.82359,-7.8251 2.71234,-2.51173 5.81224,-5.24046 8.77425,-7.37468 1.42134,-1.02412 2.92197,-1.8986 4.38294,-2.8479 1.35691,-0.70947 2.70094,-1.45172 4.07072,-2.12844 2.80545,-1.38599 4.98499,-2.33453 7.86732,-3.41954 1.65734,-0.6239 3.56245,-1.28802 5.31167,-1.6283 0.4997,-0.0971 1.00952,-0.10711 1.51429,-0.16074 0,0 -2.50449,-2.05306 -2.50449,-2.05306 z"
           id="path695"
           style="fill:#000000;fill-opacity:1;stroke:#000000;stroke-width:0.82186234;stroke-linecap:round;stroke-linejoin:round;stroke-miterlimit:4;stroke-dasharray:none;stroke-opacity:1" />
      </g>
      <rect
         y="79.962791"
         x="24.307171"
         height="149.43239"
         width="156.11411"
         id="rect746"
         style="fill:none;fill-opacity:1;stroke:#000000;stroke-width:0.93629271;stroke-linecap:round;stroke-linejoin:round;stroke-miterlimit:4;stroke-dasharray:none;stroke-opacity:1" />
    </g>
    <text
       xml:space="preserve"
       style="font-style:normal;font-weight:normal;font-size:10.58333302px;line-height:1.25;font-family:sans-serif;letter-spacing:0px;word-spacing:0px;fill:#000000;fill-opacity:1;stroke:none;stroke-width:0.26458332"
       x="24.054255"
       y="205.67114"
       id="text1651"><tspan
         sodipodi:role="line"
         id="tspan1649"
         x="24.054255"
         y="205.67114"
         style="stroke-width:0.26458332">You win if you have 5 in a row</tspan></text>
    <g
       id="g1924"
       transform="translate(0,-16.630952)">
      <g
         transform="matrix(0.77853682,0,0,0.77853682,25.177714,40.496794)"
         id="g1709">
        <rect
           y="248.4368"
           x="29.566273"
           height="36.666374"
           width="35.920914"
           id="rect852-9"
           style="color:#000000;display:inline;overflow:visible;visibility:visible;opacity:1;fill:none;fill-opacity:1;fill-rule:nonzero;stroke:#000000;stroke-width:1.00810349;stroke-linecap:round;stroke-linejoin:round;stroke-miterlimit:4;stroke-dasharray:none;stroke-dashoffset:0;stroke-opacity:1;marker:none;enable-background:accumulate" />
        <path
           inkscape:connector-curvature="0"
           id="path1682"
           d="M 29.104166,255.6116 H 65.200892"
           style="fill:none;stroke:#000000;stroke-width:0.96499997;stroke-linecap:butt;stroke-linejoin:miter;stroke-miterlimit:4;stroke-dasharray:none;stroke-opacity:1" />
        <path
           style="fill:none;stroke:#000000;stroke-width:0.96499997;stroke-linecap:butt;stroke-linejoin:miter;stroke-miterlimit:4;stroke-dasharray:none;stroke-opacity:1"
           d="M 29.104166,263.01995 H 65.200892"
           id="path1684"
           inkscape:connector-curvature="0" />
        <path
           inkscape:connector-curvature="0"
           id="path1686"
           d="M 29.104166,270.4283 H 65.200892"
           style="fill:none;stroke:#000000;stroke-width:0.96499997;stroke-linecap:butt;stroke-linejoin:miter;stroke-miterlimit:4;stroke-dasharray:none;stroke-opacity:1" />
        <path
           style="fill:none;stroke:#000000;stroke-width:0.96499997;stroke-linecap:butt;stroke-linejoin:miter;stroke-miterlimit:4;stroke-dasharray:none;stroke-opacity:1"
           d="M 29.104166,277.83665 H 65.200892"
           id="path1688"
           inkscape:connector-curvature="0" />
        <path
           style="fill:none;stroke:#000000;stroke-width:0.96499997;stroke-linecap:butt;stroke-linejoin:miter;stroke-miterlimit:4;stroke-dasharray:none;stroke-opacity:1"
           d="m 57.471299,248.94035 v 36.09672"
           id="path1692"
           inkscape:connector-curvature="0" />
        <path
           inkscape:connector-curvature="0"
           id="path1694"
           d="m 50.592119,248.94035 v 36.09672"
           style="fill:none;stroke:#000000;stroke-width:0.96499997;stroke-linecap:butt;stroke-linejoin:miter;stroke-miterlimit:4;stroke-dasharray:none;stroke-opacity:1" />
        <path
           style="fill:none;stroke:#000000;stroke-width:0.96499997;stroke-linecap:butt;stroke-linejoin:miter;stroke-miterlimit:4;stroke-dasharray:none;stroke-opacity:1"
           d="m 43.712939,248.94035 v 36.09672"
           id="path1696"
           inkscape:connector-curvature="0" />
        <path
           inkscape:connector-curvature="0"
           id="path1698"
           d="m 36.833759,248.94035 v 36.09672"
           style="fill:none;stroke:#000000;stroke-width:0.96499997;stroke-linecap:butt;stroke-linejoin:miter;stroke-miterlimit:4;stroke-dasharray:none;stroke-opacity:1" />
      </g>
      <g
         id="g1729"
         transform="matrix(0.77853682,0,0,0.77853682,66.375289,40.496794)">
        <rect
           style="color:#000000;display:inline;overflow:visible;visibility:visible;opacity:1;fill:none;fill-opacity:1;fill-rule:nonzero;stroke:#000000;stroke-width:1.00810349;stroke-linecap:round;stroke-linejoin:round;stroke-miterlimit:4;stroke-dasharray:none;stroke-dashoffset:0;stroke-opacity:1;marker:none;enable-background:accumulate"
           id="rect1711"
           width="35.920914"
           height="36.666374"
           x="29.566273"
           y="248.4368" />
        <path
           style="fill:none;stroke:#000000;stroke-width:0.96499997;stroke-linecap:butt;stroke-linejoin:miter;stroke-miterlimit:4;stroke-dasharray:none;stroke-opacity:1"
           d="M 29.104166,255.6116 H 65.200892"
           id="path1713"
           inkscape:connector-curvature="0" />
        <path
           inkscape:connector-curvature="0"
           id="path1715"
           d="M 29.104166,263.01995 H 65.200892"
           style="fill:none;stroke:#000000;stroke-width:0.96499997;stroke-linecap:butt;stroke-linejoin:miter;stroke-miterlimit:4;stroke-dasharray:none;stroke-opacity:1" />
        <path
           style="fill:none;stroke:#000000;stroke-width:0.96499997;stroke-linecap:butt;stroke-linejoin:miter;stroke-miterlimit:4;stroke-dasharray:none;stroke-opacity:1"
           d="M 29.104166,270.4283 H 65.200892"
           id="path1717"
           inkscape:connector-curvature="0" />
        <path
           inkscape:connector-curvature="0"
           id="path1719"
           d="M 29.104166,277.83665 H 65.200892"
           style="fill:none;stroke:#000000;stroke-width:0.96499997;stroke-linecap:butt;stroke-linejoin:miter;stroke-miterlimit:4;stroke-dasharray:none;stroke-opacity:1" />
        <path
           inkscape:connector-curvature="0"
           id="path1721"
           d="m 57.471299,248.94035 v 36.09672"
           style="fill:none;stroke:#000000;stroke-width:0.96499997;stroke-linecap:butt;stroke-linejoin:miter;stroke-miterlimit:4;stroke-dasharray:none;stroke-opacity:1" />
        <path
           style="fill:none;stroke:#000000;stroke-width:0.96499997;stroke-linecap:butt;stroke-linejoin:miter;stroke-miterlimit:4;stroke-dasharray:none;stroke-opacity:1"
           d="m 50.592119,248.94035 v 36.09672"
           id="path1723"
           inkscape:connector-curvature="0" />
        <path
           inkscape:connector-curvature="0"
           id="path1725"
           d="m 43.712939,248.94035 v 36.09672"
           style="fill:none;stroke:#000000;stroke-width:0.96499997;stroke-linecap:butt;stroke-linejoin:miter;stroke-miterlimit:4;stroke-dasharray:none;stroke-opacity:1" />
        <path
           style="fill:none;stroke:#000000;stroke-width:0.96499997;stroke-linecap:butt;stroke-linejoin:miter;stroke-miterlimit:4;stroke-dasharray:none;stroke-opacity:1"
           d="m 36.833759,248.94035 v 36.09672"
           id="path1727"
           inkscape:connector-curvature="0" />
      </g>
      <g
         transform="matrix(0.77853682,0,0,0.77853682,107.57287,40.496794)"
         id="g1749">
        <rect
           y="248.4368"
           x="29.566273"
           height="36.666374"
           width="35.920914"
           id="rect1731"
           style="color:#000000;display:inline;overflow:visible;visibility:visible;opacity:1;fill:none;fill-opacity:1;fill-rule:nonzero;stroke:#000000;stroke-width:1.00810349;stroke-linecap:round;stroke-linejoin:round;stroke-miterlimit:4;stroke-dasharray:none;stroke-dashoffset:0;stroke-opacity:1;marker:none;enable-background:accumulate" />
        <path
           inkscape:connector-curvature="0"
           id="path1733"
           d="M 29.104166,255.6116 H 65.200892"
           style="fill:none;stroke:#000000;stroke-width:0.96499997;stroke-linecap:butt;stroke-linejoin:miter;stroke-miterlimit:4;stroke-dasharray:none;stroke-opacity:1" />
        <path
           style="fill:none;stroke:#000000;stroke-width:0.96499997;stroke-linecap:butt;stroke-linejoin:miter;stroke-miterlimit:4;stroke-dasharray:none;stroke-opacity:1"
           d="M 29.104166,263.01995 H 65.200892"
           id="path1735"
           inkscape:connector-curvature="0" />
        <path
           inkscape:connector-curvature="0"
           id="path1737"
           d="M 29.104166,270.4283 H 65.200892"
           style="fill:none;stroke:#000000;stroke-width:0.96499997;stroke-linecap:butt;stroke-linejoin:miter;stroke-miterlimit:4;stroke-dasharray:none;stroke-opacity:1" />
        <path
           style="fill:none;stroke:#000000;stroke-width:0.96499997;stroke-linecap:butt;stroke-linejoin:miter;stroke-miterlimit:4;stroke-dasharray:none;stroke-opacity:1"
           d="M 29.104166,277.83665 H 65.200892"
           id="path1739"
           inkscape:connector-curvature="0" />
        <path
           style="fill:none;stroke:#000000;stroke-width:0.96499997;stroke-linecap:butt;stroke-linejoin:miter;stroke-miterlimit:4;stroke-dasharray:none;stroke-opacity:1"
           d="m 57.471299,248.94035 v 36.09672"
           id="path1741"
           inkscape:connector-curvature="0" />
        <path
           inkscape:connector-curvature="0"
           id="path1743"
           d="m 50.592119,248.94035 v 36.09672"
           style="fill:none;stroke:#000000;stroke-width:0.96499997;stroke-linecap:butt;stroke-linejoin:miter;stroke-miterlimit:4;stroke-dasharray:none;stroke-opacity:1" />
        <path
           style="fill:none;stroke:#000000;stroke-width:0.96499997;stroke-linecap:butt;stroke-linejoin:miter;stroke-miterlimit:4;stroke-dasharray:none;stroke-opacity:1"
           d="m 43.712939,248.94035 v 36.09672"
           id="path1745"
           inkscape:connector-curvature="0" />
        <path
           inkscape:connector-curvature="0"
           id="path1747"
           d="m 36.833759,248.94035 v 36.09672"
           style="fill:none;stroke:#000000;stroke-width:0.96499997;stroke-linecap:butt;stroke-linejoin:miter;stroke-miterlimit:4;stroke-dasharray:none;stroke-opacity:1" />
      </g>
      <path
         inkscape:connector-curvature="0"
         d="m 48.447563,239.06851 c 0.7381,0.48238 1.493472,0.9306 2.192224,1.47014 0.802218,0.79018 1.525114,1.65493 2.305225,2.46727 0.429861,0.42255 0.790618,0.9023 1.150095,1.3837 0,0 -0.202011,2.14219 -0.202011,2.14219 v 0 c -0.349201,-0.48929 -0.701964,-0.97579 -1.120498,-1.4095 -0.764154,-0.81884 -1.487902,-1.67464 -2.273066,-2.4732 -0.679682,-0.53828 -1.412106,-0.99758 -2.180334,-1.40006 0,0 0.128365,-2.18054 0.128365,-2.18054 z"
         id="path1753"
         style="fill:#000000;fill-opacity:1;stroke:#000000;stroke-width:0.751288;stroke-linecap:round;stroke-linejoin:round;stroke-miterlimit:4;stroke-dasharray:none;stroke-opacity:1" />
      <path
         inkscape:connector-curvature="0"
         d="m 47.857696,244.06786 c 0.171335,-0.0768 0.346046,-0.14642 0.514006,-0.23031 0.662113,-0.33074 1.293676,-0.69643 1.935368,-1.06562 0.960203,-0.55244 1.906728,-1.1235 2.846424,-1.70991 0.220545,-0.14345 0.44109,-0.28689 0.661635,-0.43035 0,0 0.115399,2.06376 0.115399,2.06376 v 0 c -0.222124,0.13321 -0.444244,0.26642 -0.666367,0.39961 -0.949958,0.55603 -1.904963,1.10359 -2.851888,1.66476 -0.349306,0.20699 -0.696473,0.4176 -1.044712,0.62638 -0.299239,0.18397 -0.595719,0.37249 -0.897718,0.55189 -0.172888,0.10268 -0.351103,0.19614 -0.526653,0.29421 0,0 -0.08549,-2.16442 -0.08549,-2.16442 z"
         id="path1755"
         style="fill:#000000;fill-opacity:1;stroke:#000000;stroke-width:0.751288;stroke-linecap:round;stroke-linejoin:round;stroke-miterlimit:4;stroke-dasharray:none;stroke-opacity:1" />
      <path
         inkscape:connector-curvature="0"
         d="m 54.93516,239.10694 c 0.584358,0.80546 1.316674,1.47791 2.080804,2.10766 0.690818,0.53066 1.467963,0.92574 2.240114,1.32092 0,0 -0.103517,2.14114 -0.103517,2.14114 v 0 c -0.779118,-0.41867 -1.570779,-0.82156 -2.282589,-1.35194 -0.758809,-0.62913 -1.488083,-1.28873 -2.125762,-2.04371 0,0 0.19095,-2.17407 0.19095,-2.17407 z"
         id="path1757"
         style="fill:#000000;fill-opacity:1;stroke:#000000;stroke-width:0.751288;stroke-linecap:round;stroke-linejoin:round;stroke-miterlimit:4;stroke-dasharray:none;stroke-opacity:1" />
      <path
         inkscape:connector-curvature="0"
         d="m 54.841991,243.34373 c 1.117138,-0.64671 2.006254,-1.57628 2.87186,-2.51594 0.450935,-0.48261 0.857927,-1.00348 1.282025,-1.50931 0,0 0.186394,2.14561 0.186394,2.14561 v 0 c -0.42397,0.49237 -0.839185,0.99314 -1.297352,1.45473 -0.90852,0.94683 -1.854744,1.85797 -2.941941,2.60144 0,0 -0.100986,-2.17653 -0.100986,-2.17653 z"
         id="path1759"
         style="fill:#000000;fill-opacity:1;stroke:#000000;stroke-width:0.751288;stroke-linecap:round;stroke-linejoin:round;stroke-miterlimit:4;stroke-dasharray:none;stroke-opacity:1" />
      <path
         inkscape:connector-curvature="0"
         d="m 59.627491,238.88624 c 0.124814,0.0648 0.253564,0.12271 0.374445,0.19467 0.307809,0.18322 0.761001,0.5093 1.049528,0.70639 0.528159,0.36076 1.058636,0.71828 1.593108,1.06961 0.655629,0.45016 1.403165,0.74889 2.045719,1.21654 0.06579,0.0594 0.131596,0.11883 0.197392,0.17824 0,0 -0.167046,2.15442 -0.167046,2.15442 v 0 c -0.0572,-0.0608 -0.114404,-0.12155 -0.171604,-0.18231 -0.619572,-0.5055 -1.37609,-0.80745 -2.028595,-1.26773 -0.530565,-0.36273 -1.059509,-0.727 -1.593811,-1.08422 -0.297624,-0.19898 -0.700136,-0.48134 -1.021498,-0.6563 -0.106275,-0.0578 -0.22071,-0.0993 -0.331063,-0.14891 0,0 0.05342,-2.1804 0.05342,-2.1804 z"
         id="path1761"
         style="fill:#000000;fill-opacity:1;stroke:#000000;stroke-width:0.751288;stroke-linecap:round;stroke-linejoin:round;stroke-miterlimit:4;stroke-dasharray:none;stroke-opacity:1" />
      <path
         inkscape:connector-curvature="0"
         d="m 59.150833,242.56227 c 1.145902,-0.80665 2.19836,-1.73805 3.220949,-2.69376 0.545564,-0.52714 1.115283,-1.0258 1.718893,-1.48491 0,0 0.136562,2.12426 0.136562,2.12426 v 0 c -0.598389,0.43941 -1.163929,0.91954 -1.700156,1.43349 -1.050297,0.96678 -2.149288,1.87939 -3.253562,2.78343 0,0 -0.122686,-2.16251 -0.122686,-2.16251 z"
         id="path1763"
         style="fill:#000000;fill-opacity:1;stroke:#000000;stroke-width:0.751288;stroke-linecap:round;stroke-linejoin:round;stroke-miterlimit:4;stroke-dasharray:none;stroke-opacity:1" />
      <path
         inkscape:connector-curvature="0"
         d="m 65.984754,239.29322 c 0.560895,1.01833 1.34038,1.8739 2.137689,2.70851 0,0 -0.169772,2.08869 -0.169772,2.08869 v 0 c -0.785326,-0.83126 -1.569715,-1.66244 -2.187929,-2.63102 0,0 0.220012,-2.16618 0.220012,-2.16618 z"
         id="path1765"
         style="fill:#000000;fill-opacity:1;stroke:#000000;stroke-width:0.751288;stroke-linecap:round;stroke-linejoin:round;stroke-miterlimit:4;stroke-dasharray:none;stroke-opacity:1" />
      <path
         inkscape:connector-curvature="0"
         d="m 65.425366,243.32744 c 0.805624,-0.53596 1.606042,-1.08097 2.392814,-1.6442 0.618125,-0.43113 1.236797,-0.86155 1.849236,-1.30073 0,0 0.129688,2.11599 0.129688,2.11599 v 0 c -0.616388,0.42355 -1.23592,0.84255 -1.849014,1.27089 -0.801854,0.57552 -1.602507,1.15198 -2.401163,1.73196 0,0 -0.121561,-2.17391 -0.121561,-2.17391 z"
         id="path1767"
         style="fill:#000000;fill-opacity:1;stroke:#000000;stroke-width:0.751288;stroke-linecap:round;stroke-linejoin:round;stroke-miterlimit:4;stroke-dasharray:none;stroke-opacity:1" />
      <path
         inkscape:connector-curvature="0"
         d="m 71.135872,239.77404 c 0.723977,1.38923 2.179443,2.20327 3.444892,3.03927 0,0 -0.119212,2.03199 -0.119212,2.03199 v 0 c -0.98117,-0.65434 -2.129167,-1.32407 -2.971467,-2.14971 -0.233702,-0.22908 -0.420113,-0.50126 -0.612266,-0.76381 0,0 0.258053,-2.15774 0.258053,-2.15774 z"
         id="path1769"
         style="fill:#000000;fill-opacity:1;stroke:#000000;stroke-width:0.751288;stroke-linecap:round;stroke-linejoin:round;stroke-miterlimit:4;stroke-dasharray:none;stroke-opacity:1" />
      <path
         inkscape:connector-curvature="0"
         d="m 70.9803,243.6888 c 0.697341,-0.71993 1.404913,-1.4284 2.123508,-2.12712 0,0 0.160697,2.08397 0.160697,2.08397 v 0 c -0.727877,0.70273 -1.450049,1.41616 -2.090315,2.20116 0,0 -0.19389,-2.15801 -0.19389,-2.15801 z"
         id="path1771"
         style="fill:#000000;fill-opacity:1;stroke:#000000;stroke-width:0.751288;stroke-linecap:round;stroke-linejoin:round;stroke-miterlimit:4;stroke-dasharray:none;stroke-opacity:1" />
      <path
         inkscape:connector-curvature="0"
         d="m 108.97082,236.32435 c -0.58451,0.36415 -1.12383,0.79236 -1.6644,1.21702 0,0 -0.13779,-2.06211 -0.13779,-2.06211 v 0 c 0.5482,-0.43302 1.10566,-0.85562 1.63217,-1.31519 0,0 0.17002,2.16028 0.17002,2.16028 z"
         id="path1773"
         style="fill:#000000;fill-opacity:1;stroke:#000000;stroke-width:0.751288;stroke-linecap:round;stroke-linejoin:round;stroke-miterlimit:4;stroke-dasharray:none;stroke-opacity:1" />
      <path
         inkscape:connector-curvature="0"
         d="m 106.89861,233.38877 c 0.78645,0.94727 1.55208,1.91022 2.35777,2.84145 0,0 -0.17406,2.03351 -0.17406,2.03351 v 0 c -0.789,-0.89853 -1.54031,-1.82966 -2.35442,-2.70582 0,0 0.17071,-2.16914 0.17071,-2.16914 z"
         id="path1775"
         style="fill:#000000;fill-opacity:1;stroke:#000000;stroke-width:0.751288;stroke-linecap:round;stroke-linejoin:round;stroke-miterlimit:4;stroke-dasharray:none;stroke-opacity:1" />
      <path
         inkscape:connector-curvature="0"
         d="m 110.06717,242.61592 c -1.01114,0.77754 -1.83312,1.76366 -2.71235,2.68033 -0.12251,0.11923 -0.24502,0.23846 -0.36753,0.3577 0,0 -0.16167,-2.11057 -0.16167,-2.11057 v 0 c 0.12035,-0.11369 0.2407,-0.2274 0.36105,-0.34108 0.90845,-0.92844 1.76659,-1.91296 2.76632,-2.74665 0,0 0.11418,2.16027 0.11418,2.16027 z"
         id="path1777"
         style="fill:#000000;fill-opacity:1;stroke:#000000;stroke-width:0.751288;stroke-linecap:round;stroke-linejoin:round;stroke-miterlimit:4;stroke-dasharray:none;stroke-opacity:1" />
      <path
         inkscape:connector-curvature="0"
         d="m 106.17006,239.29347 c 0.0979,0.12573 0.19745,0.25027 0.29387,0.37719 0.42745,0.56272 0.49724,0.69318 0.98199,1.2568 0.62185,0.72305 1.30472,1.39227 1.97269,2.07189 0.84077,0.89254 1.66027,1.80471 2.491,2.70653 0,0 -0.17519,2.09648 -0.17519,2.09648 v 0 c -0.82578,-0.92301 -1.63094,-1.8646 -2.47847,-2.76794 -0.6641,-0.68526 -1.34893,-1.35468 -1.98935,-2.06237 -0.69107,-0.76366 -0.39453,-0.47402 -0.98884,-1.18459 -0.0941,-0.11245 -0.19511,-0.21888 -0.29266,-0.32832 0,0 0.18496,-2.16567 0.18496,-2.16567 z"
         id="path1779"
         style="fill:#000000;fill-opacity:1;stroke:#000000;stroke-width:0.751288;stroke-linecap:round;stroke-linejoin:round;stroke-miterlimit:4;stroke-dasharray:none;stroke-opacity:1" />
      <path
         inkscape:connector-curvature="0"
         d="m 109.78735,247.16638 c -0.94583,1.02145 -2.05671,1.87134 -3.14495,2.73293 -0.43075,0.3445 -0.84573,0.70762 -1.25741,1.0744 0,0 -0.15124,-2.11869 -0.15124,-2.11869 v 0 c 0.41715,-0.3494 0.83574,-0.69733 1.27135,-1.02382 1.10812,-0.85303 2.23797,-1.71753 3.0913,-2.83889 0,0 0.19095,2.17407 0.19095,2.17407 z"
         id="path1781"
         style="fill:#000000;fill-opacity:1;stroke:#000000;stroke-width:0.751288;stroke-linecap:round;stroke-linejoin:round;stroke-miterlimit:4;stroke-dasharray:none;stroke-opacity:1" />
      <path
         inkscape:connector-curvature="0"
         d="m 106.00662,245.74765 c 0.11303,0.15005 0.21939,0.30534 0.33909,0.4501 0.42106,0.50923 0.9791,1.09774 1.42508,1.5645 1.0231,1.07084 2.0833,2.09791 3.15907,3.11533 0.30511,0.27453 0.61021,0.54905 0.91531,0.8236 0,0 -0.14768,1.97882 -0.14768,1.97882 v 0 c -0.30512,-0.2882 -0.61025,-0.57641 -0.91537,-0.86461 -1.67713,-1.60805 -3.38079,-3.1958 -4.96305,-4.89782 0,0 0.18755,-2.16992 0.18755,-2.16992 z"
         id="path1783"
         style="fill:#000000;fill-opacity:1;stroke:#000000;stroke-width:0.751288;stroke-linecap:round;stroke-linejoin:round;stroke-miterlimit:4;stroke-dasharray:none;stroke-opacity:1" />
      <path
         inkscape:connector-curvature="0"
         d="m 110.07185,252.59471 c -0.95176,0.72965 -1.83959,1.58143 -2.55641,2.54737 -0.13307,0.17932 -0.24853,0.37107 -0.3728,0.5566 -0.29054,0.44389 -0.50518,0.9357 -0.85797,1.33746 -0.0859,0.0978 -0.18697,0.18106 -0.28046,0.27159 0,0 -0.16738,-2.13342 -0.16738,-2.13342 v 0 c 0.4578,-0.46921 0.7617,-0.99681 1.10511,-1.55322 0.13064,-0.18092 0.25373,-0.36755 0.39192,-0.54276 0.76479,-0.96982 1.69028,-1.79693 2.56657,-2.66163 0,0 0.17142,2.17801 0.17142,2.17801 z"
         id="path1785"
         style="fill:#000000;fill-opacity:1;stroke:#000000;stroke-width:0.751288;stroke-linecap:round;stroke-linejoin:round;stroke-miterlimit:4;stroke-dasharray:none;stroke-opacity:1" />
      <path
         inkscape:connector-curvature="0"
         d="m 104.98071,251.88329 c 1.64106,1.44906 3.32271,2.84914 5.07634,4.15986 0.81058,0.59013 0.42376,0.31689 1.15802,0.82324 0,0 -0.13003,2.08902 -0.13003,2.08902 v 0 c -0.73642,-0.54725 -0.34888,-0.25384 -1.16061,-0.88288 -1.70729,-1.33357 -3.34693,-2.75221 -5.0816,-4.0496 0,0 0.13788,-2.13964 0.13788,-2.13964 z"
         id="path1787"
         style="fill:#000000;fill-opacity:1;stroke:#000000;stroke-width:0.751288;stroke-linecap:round;stroke-linejoin:round;stroke-miterlimit:4;stroke-dasharray:none;stroke-opacity:1" />
      <path
         inkscape:connector-curvature="0"
         d="m 109.39948,259.75011 c -0.64634,0.65337 -1.26368,1.35083 -1.9786,1.93252 -0.17205,0.13998 -0.36089,0.25796 -0.54134,0.38694 0,0 -0.12944,-2.08665 -0.12944,-2.08665 v 0 c 0.17269,-0.12287 0.35345,-0.23515 0.51808,-0.36863 0.72754,-0.58994 1.35024,-1.30352 1.95156,-2.01692 0,0 0.17974,2.15274 0.17974,2.15274 z"
         id="path1789"
         style="fill:#000000;fill-opacity:1;stroke:#000000;stroke-width:0.751288;stroke-linecap:round;stroke-linejoin:round;stroke-miterlimit:4;stroke-dasharray:none;stroke-opacity:1" />
      <path
         inkscape:connector-curvature="0"
         d="m 106.63837,255.6837 c 0.92253,1.3244 1.86211,2.63646 2.86141,3.90423 0,0 -0.18506,2.04114 -0.18506,2.04114 v 0 c -0.98033,-1.24837 -1.89291,-2.54838 -2.87992,-3.79077 0,0 0.20357,-2.1546 0.20357,-2.1546 z"
         id="path1791"
         style="fill:#000000;fill-opacity:1;stroke:#000000;stroke-width:0.751288;stroke-linecap:round;stroke-linejoin:round;stroke-miterlimit:4;stroke-dasharray:none;stroke-opacity:1" />
      <path
         inkscape:connector-curvature="0"
         d="m 135.1666,258.50586 c -0.18172,0.18669 -0.34719,0.39072 -0.54517,0.56008 -0.63225,0.54084 -1.55096,1.14177 -2.23584,1.57954 -0.50174,0.3207 -1.83775,1.13524 -2.3962,1.43477 -0.30788,0.16513 -0.62908,0.30414 -0.94362,0.45622 0,0 -0.0873,-2.02076 -0.0873,-2.02076 v 0 c 0.30967,-0.13558 0.62695,-0.25497 0.92901,-0.40676 0.63026,-0.31674 1.81843,-1.02626 2.38165,-1.39902 0.74563,-0.49348 1.54213,-1.05886 2.17657,-1.70098 0.19078,-0.1931 0.33594,-0.42648 0.50391,-0.63974 0,0 0.21701,2.13665 0.21701,2.13665 z"
         id="path1793"
         style="fill:#000000;fill-opacity:1;stroke:#000000;stroke-width:0.751288;stroke-linecap:round;stroke-linejoin:round;stroke-miterlimit:4;stroke-dasharray:none;stroke-opacity:1" />
      <path
         inkscape:connector-curvature="0"
         d="m 130.90518,256.82218 c 0.66223,0.75863 1.35373,1.50194 2.10832,2.17068 0.22773,0.20183 0.46827,0.3887 0.70241,0.58304 0,0 -0.14029,2.03814 -0.14029,2.03814 v 0 c -0.23864,-0.19367 -0.48365,-0.37977 -0.71593,-0.58103 -0.74611,-0.6465 -1.41965,-1.37273 -2.13741,-2.04944 0,0 0.1829,-2.16139 0.1829,-2.16139 z"
         id="path1795"
         style="fill:#000000;fill-opacity:1;stroke:#000000;stroke-width:0.751288;stroke-linecap:round;stroke-linejoin:round;stroke-miterlimit:4;stroke-dasharray:none;stroke-opacity:1" />
      <path
         inkscape:connector-curvature="0"
         d="m 141.81729,252.33121 c -0.0782,0.086 -0.14802,0.18038 -0.23454,0.25798 -0.46465,0.41671 -0.96601,0.79062 -1.44461,1.19122 -0.77716,0.65052 -0.95284,0.80672 -1.70871,1.45855 0,0 -0.14213,-2.00781 -0.14213,-2.00781 v 0 c 1.15615,-0.97723 2.36156,-1.92576 3.35927,-3.06909 0,0 0.17072,2.16915 0.17072,2.16915 z"
         id="path1797"
         style="fill:#000000;fill-opacity:1;stroke:#000000;stroke-width:0.751288;stroke-linecap:round;stroke-linejoin:round;stroke-miterlimit:4;stroke-dasharray:none;stroke-opacity:1" />
      <path
         inkscape:connector-curvature="0"
         d="m 135.01867,250.18189 c 0.84902,0.96017 1.79704,1.81939 2.84583,2.55705 0.25686,0.18068 0.52414,0.3461 0.7862,0.51913 1.0676,0.64193 2.04608,1.42637 3.1308,2.03937 0,0 -0.11159,2.13411 -0.11159,2.13411 v 0 c -1.09282,-0.64031 -2.05327,-1.48418 -3.138,-2.13951 -1.33538,-0.88099 -2.56203,-1.79912 -3.68361,-2.94544 0,0 0.17037,-2.16471 0.17037,-2.16471 z"
         id="path1799"
         style="fill:#000000;fill-opacity:1;stroke:#000000;stroke-width:0.751288;stroke-linecap:round;stroke-linejoin:round;stroke-miterlimit:4;stroke-dasharray:none;stroke-opacity:1" />
      <path
         inkscape:connector-curvature="0"
         d="m 147.48355,247.47348 c -0.638,0.46307 -1.18626,1.02828 -1.69941,1.62271 -0.34733,0.40771 -0.70042,1.01599 -1.141,1.32172 -0.0889,0.0617 -0.18905,0.10555 -0.28357,0.15833 -0.11148,0.043 -0.22296,0.0859 -0.33444,0.12892 0,0 -0.084,-2.14371 -0.084,-2.14371 v 0 c 0.10094,-0.0448 0.20188,-0.0896 0.30281,-0.13435 0.0809,-0.0518 0.16694,-0.0963 0.24268,-0.15539 0.45373,-0.35387 0.73563,-0.89166 1.11606,-1.31347 0.53903,-0.59537 1.12355,-1.1442 1.74853,-1.6493 0,0 0.13236,2.16454 0.13236,2.16454 z"
         id="path1801"
         style="fill:#000000;fill-opacity:1;stroke:#000000;stroke-width:0.751288;stroke-linecap:round;stroke-linejoin:round;stroke-miterlimit:4;stroke-dasharray:none;stroke-opacity:1" />
      <path
         inkscape:connector-curvature="0"
         d="m 141.74927,243.28643 c 0.59692,1.25867 1.75876,2.12715 2.82325,2.97628 0.98132,0.66931 1.79516,1.53559 2.61971,2.38107 0.0877,0.0798 0.17542,0.15958 0.26314,0.23938 0,0 -0.15927,2.13556 -0.15927,2.13556 v 0 c -0.0919,-0.0857 -0.18382,-0.17134 -0.27573,-0.25701 -0.80708,-0.86709 -1.60841,-1.74787 -2.58866,-2.42666 -0.78432,-0.63877 -1.6689,-1.32836 -2.34623,-2.07681 -0.19984,-0.22083 -0.42943,-0.55879 -0.60743,-0.81162 0,0 0.27122,-2.16019 0.27122,-2.16019 z"
         id="path1803"
         style="fill:#000000;fill-opacity:1;stroke:#000000;stroke-width:0.751288;stroke-linecap:round;stroke-linejoin:round;stroke-miterlimit:4;stroke-dasharray:none;stroke-opacity:1" />
      <path
         inkscape:connector-curvature="0"
         d="m 150.85232,240.87086 c -0.81853,0.9941 -1.66352,1.96602 -2.43964,2.99416 -0.27841,0.36706 -0.49867,0.76828 -0.70353,1.17883 0,0 -0.23111,-2.1275 -0.23111,-2.1275 v 0 c 0.2239,-0.39573 0.46047,-0.78334 0.74376,-1.14061 0.81087,-1.01713 1.68814,-1.98731 2.41051,-3.07106 0,0 0.22001,2.16618 0.22001,2.16618 z"
         id="path1805"
         style="fill:#000000;fill-opacity:1;stroke:#000000;stroke-width:0.751288;stroke-linecap:round;stroke-linejoin:round;stroke-miterlimit:4;stroke-dasharray:none;stroke-opacity:1" />
      <path
         inkscape:connector-curvature="0"
         d="m 147.67221,238.85255 c 1.02344,1.083 1.95941,2.24594 2.94026,3.36764 0.5342,0.60297 1.05887,1.21449 1.66696,1.74441 0,0 -0.15533,2.12487 -0.15533,2.12487 v 0 c -0.61131,-0.56012 -1.14505,-1.19335 -1.68743,-1.81945 -0.56276,-0.65191 -1.12033,-1.30878 -1.68931,-1.95532 -0.0805,-0.0915 -0.78841,-0.88501 -0.92327,-1.01844 -0.101,-0.0999 -0.21483,-0.186 -0.32225,-0.279 0,0 0.17037,-2.16471 0.17037,-2.16471 z"
         id="path1807"
         style="fill:#000000;fill-opacity:1;stroke:#000000;stroke-width:0.751288;stroke-linecap:round;stroke-linejoin:round;stroke-miterlimit:4;stroke-dasharray:none;stroke-opacity:1" />
      <path
         inkscape:connector-curvature="0"
         d="m 155.60415,236.8132 c -0.6629,0.67488 -1.22881,1.43819 -1.89377,2.10993 0,0 -0.16932,-2.13518 -0.16932,-2.13518 v 0 c 0.66297,-0.67215 1.26889,-1.40081 1.87428,-2.12432 0,0 0.18881,2.14957 0.18881,2.14957 z"
         id="path1809"
         style="fill:#000000;fill-opacity:1;stroke:#000000;stroke-width:0.751288;stroke-linecap:round;stroke-linejoin:round;stroke-miterlimit:4;stroke-dasharray:none;stroke-opacity:1" />
      <path
         inkscape:connector-curvature="0"
         d="m 152.92653,233.22158 c 0.68987,0.92284 1.49663,1.75668 2.30387,2.57701 0.62254,0.59198 0.3158,0.30763 0.91912,0.85426 0,0 -0.15568,2.09414 -0.15568,2.09414 v 0 c -0.60626,-0.56243 -0.29668,-0.27224 -0.92825,-0.8711 -0.48206,-0.48662 -0.95217,-0.98272 -1.42073,-1.48232 -0.24485,-0.26107 -0.50148,-0.51121 -0.7396,-0.77842 -0.0615,-0.0691 -0.11312,-0.14634 -0.16968,-0.21952 0,0 0.19095,-2.17405 0.19095,-2.17405 z"
         id="path1811"
         style="fill:#000000;fill-opacity:1;stroke:#000000;stroke-width:0.751288;stroke-linecap:round;stroke-linejoin:round;stroke-miterlimit:4;stroke-dasharray:none;stroke-opacity:1" />
    </g>
    <text
       xml:space="preserve"
       style="font-style:normal;font-weight:normal;font-size:10.58333302px;line-height:1.25;font-family:sans-serif;letter-spacing:0px;word-spacing:0px;fill:#000000;fill-opacity:1;stroke:none;stroke-width:0.26458332"
       x="23.786987"
       y="269.20071"
       id="text1862"><tspan
         sodipodi:role="line"
         id="tspan1860"
         x="23.786987"
         y="269.20071"
         style="stroke-width:0.26458332">don't forget to shout BINGO!!!</tspan></text>
  </g>
</svg>
